<?xml version="1.0" standalone="no"?>
<!DOCTYPE svg PUBLIC "-//W3C//DTD SVG 1.1//EN" "http://www.w3.org/Graphics/SVG/1.1/DTD/svg11.dtd" >
<svg>
<metadata>
Created by FontForge 20110222 at Thu Oct 30 16:18:55 2014
 By deploy user
Copyright 2010 Monotype Imaging Inc. All rights reserved.
</metadata>
<defs>
<font id="HarmoniaSansStd-Regular" horiz-adv-x="398" >
  <font-face 
    font-family="Harmonia Sans Std"
    font-weight="400"
    font-stretch="normal"
    units-per-em="1000"
    panose-1="2 11 5 2 3 4 2 2 2 4"
    ascent="730"
    descent="-270"
    x-height="479"
    cap-height="682"
    bbox="-170 -257 1161 959"
    underline-thickness="50"
    underline-position="-50"
    unicode-range="U+0020-FB04"
  />
<missing-glyph horiz-adv-x="500" 
d="M12 0v665h475v-665h-475zM88 618l162 -243l161 243h-323zM60 575v-484l40 61l80 120l41 61zM440 575l-162 -242l162 -243v485zM411 48l-161 242l-162 -242h323z" />
    <glyph glyph-name="f_f" unicode="ff" horiz-adv-x="580" 
d="M177 413v-413h-80v413h-69v66h69v86q0 77 38.5 118.5t112.5 41.5q30 0 59 -8v-66q-24 8 -54 8q-38 0 -57 -22.5t-19 -62.5v-95h201v86q0 77 38.5 118.5t112.5 41.5q30 0 59 -8v-66q-24 8 -54 8q-38 0 -57 -22.5t-19 -62.5v-95h110v-66h-110v-413h-80v413h-201z" />
    <glyph glyph-name="fi" unicode="fi" horiz-adv-x="526" 
d="M28 413v66h69v86q0 77 38.5 118.5t112.5 41.5q30 0 59 -8v-66q-24 8 -54 8q-38 0 -57 -22.5t-19 -62.5v-95h110v-66h-110v-413h-80v413h-69zM378 0v479h79v-479h-79zM369 594v93h98v-93h-98z" />
    <glyph glyph-name="fl" unicode="fl" horiz-adv-x="531" 
d="M28 413v66h69v86q0 77 38.5 118.5t112.5 41.5q30 0 59 -8v-66q-24 8 -54 8q-38 0 -57 -22.5t-19 -62.5v-95h110v-66h-110v-413h-80v413h-69zM383 0v720h79v-720h-79z" />
    <glyph glyph-name="f_f_i" unicode="ffi" horiz-adv-x="807" 
d="M659 0v479h79v-479h-79zM650 594v93h98v-93h-98zM177 413v-413h-80v413h-69v66h69v86q0 77 38.5 118.5t112.5 41.5q30 0 59 -8v-66q-24 8 -54 8q-38 0 -57 -22.5t-19 -62.5v-95h201v86q0 77 38.5 118.5t112.5 41.5q30 0 59 -8v-66q-24 8 -54 8q-38 0 -57 -22.5t-19 -62.5
v-95h110v-66h-110v-413h-80v413h-201z" />
    <glyph glyph-name="f_f_l" unicode="ffl" horiz-adv-x="807" 
d="M659 0v720h79v-720h-79zM177 413v-413h-80v413h-69v66h69v86q0 77 38.5 118.5t112.5 41.5q30 0 59 -8v-66q-24 8 -54 8q-38 0 -57 -22.5t-19 -62.5v-95h201v86q0 77 38.5 118.5t112.5 41.5q30 0 59 -8v-66q-24 8 -54 8q-38 0 -57 -22.5t-19 -62.5v-95h110v-66h-110v-413
h-80v413h-201z" />
    <glyph glyph-name=".notdef" horiz-adv-x="500" 
d="M12 0v665h475v-665h-475zM88 618l162 -243l161 243h-323zM60 575v-484l40 61l80 120l41 61zM440 575l-162 -242l162 -243v485zM411 48l-161 242l-162 -242h323z" />
    <glyph glyph-name=".null" horiz-adv-x="0" 
 />
    <glyph glyph-name="nonmarkingreturn" horiz-adv-x="333" 
 />
    <glyph glyph-name="space" unicode=" " horiz-adv-x="250" 
 />
    <glyph glyph-name="exclam" unicode="!" horiz-adv-x="229" 
d="M71 0v88h88v-88h-88zM71 682h88l-8 -493h-72z" />
    <glyph glyph-name="quotedbl" unicode="&#x22;" horiz-adv-x="359" 
d="M60 721h79l-10 -217h-60zM220 721h79l-10 -217h-61z" />
    <glyph glyph-name="numbersign" unicode="#" horiz-adv-x="590" 
d="M448 476h128l-12 -52h-127l-37 -170h129l-10 -54h-130l-43 -200h-58l44 200h-134l-45 -200h-56l43 200h-126l11 54h126l38 170h-129l10 52h130l43 206h58l-45 -206h134l45 206h57zM380 424h-135l-38 -170h136z" />
    <glyph glyph-name="dollar" unicode="$" horiz-adv-x="562" 
d="M484 521h-87q-13 59 -79 74v-198q98 -31 139 -78.5t41 -115.5q0 -66 -47.5 -118.5t-132.5 -62.5v-74h-67v73q-162 15 -200 163h89q25 -84 111 -97v251q-92 25 -131.5 65.5t-39.5 106.5q0 59 47.5 102t123.5 50v61h67v-62q69 -9 112.5 -47t53.5 -93zM417 198
q0 44 -22 72.5t-77 48.5v-231q47 9 73 40.5t26 69.5zM160 510q0 -36 19.5 -56.5t71.5 -36.5v180q-44 -7 -67.5 -30t-23.5 -57z" />
    <glyph glyph-name="percent" unicode="%" horiz-adv-x="753" 
d="M48 519q0 93 44.5 138.5t105.5 45.5q58 0 99.5 -43.5t41.5 -138.5q0 -54 -14 -93.5t-37.5 -59t-46 -28t-46.5 -8.5q-60 0 -103.5 44t-43.5 143zM269 519q0 119 -75 119q-34 0 -55 -28.5t-21 -89.5q0 -123 77 -123q32 0 53 29.5t21 92.5zM414 165q0 92 44 137.5t105 45.5
q59 0 100.5 -43t41.5 -138q0 -55 -14 -94t-37.5 -58.5t-46.5 -28t-47 -8.5q-60 0 -103 44t-43 143zM635 165q0 118 -76 118q-33 0 -54 -28.5t-21 -88.5q0 -123 76 -123q33 0 54 29t21 93zM566 682h77l-453 -682h-77z" />
    <glyph glyph-name="ampersand" unicode="&#x26;" horiz-adv-x="612" 
d="M489 326v12h76v-9q0 -58 -20 -116.5t-50 -97.5q50 -63 85 -63q12 0 28 4v-66q-18 -5 -40 -5q-31 0 -58 16t-62 59q-86 -78 -194 -78q-103 0 -159.5 60.5t-56.5 144.5q0 126 156 205q-62 92 -62 159q0 64 43.5 107.5t122.5 43.5q68 0 115.5 -39.5t47.5 -107.5
q0 -32 -12 -58t-39 -48.5t-50 -37t-64 -36.5l157 -208q36 68 36 159zM255 54q97 0 153 56l-176 230q-118 -62 -118 -153q0 -56 39.5 -94.5t101.5 -38.5zM208 546q0 -23 7 -44t15 -34.5t28 -41.5q63 30 95 59.5t32 69.5q0 32 -23 55t-65 23q-44 0 -66.5 -26t-22.5 -61z" />
    <glyph glyph-name="quotesingle" unicode="'" horiz-adv-x="199" 
d="M60 721h79l-10 -217h-60z" />
    <glyph glyph-name="parenleft" unicode="(" horiz-adv-x="320" 
d="M304 -215h-79q-78 97 -116 223.5t-38 254.5q0 129 38 255.5t116 224.5h79q-78 -98 -116 -224.5t-38 -255.5q0 -128 38 -254.5t116 -223.5z" />
    <glyph glyph-name="parenright" unicode=")" horiz-adv-x="320" 
d="M95 -215h-79q78 98 116 224t38 255q0 128 -38 255t-116 224h79q78 -97 116 -224t38 -255q0 -129 -38 -255t-116 -224z" />
    <glyph glyph-name="asterisk" unicode="*" 
d="M10 557l24 71l134 -51l-7 144h76l-7 -144l134 51l24 -71l-140 -38l90 -112l-60 -44l-79 121l-79 -121l-60 44l90 112z" />
    <glyph glyph-name="plus" unicode="+" horiz-adv-x="672" 
d="M593 227h-221v-227h-74v227h-220v74h220v229h74v-229h221v-74z" />
    <glyph glyph-name="comma" unicode="," horiz-adv-x="229" 
d="M60 0v110h110v-60q0 -102 -54 -185h-55q32 49 40 135h-41z" />
    <glyph glyph-name="hyphen" unicode="-" horiz-adv-x="471" 
d="M400 224h-322v80h322v-80z" />
    <glyph glyph-name="period" unicode="." horiz-adv-x="229" 
d="M60 0v110h110v-110h-110z" />
    <glyph glyph-name="slash" unicode="/" horiz-adv-x="359" 
d="M263 720h80l-284 -834h-79z" />
    <glyph glyph-name="zero" unicode="0" horiz-adv-x="562" 
d="M36 345q0 94 21.5 166t58 112.5t78.5 60.5t89 20q46 0 86.5 -18t77 -57t58 -111t21.5 -169q0 -87 -16.5 -154.5t-41.5 -107t-59 -65.5t-64.5 -35t-62.5 -9q-46 0 -87 18t-78 57.5t-59 114.5t-22 177zM441 345q0 142 -41.5 213.5t-118.5 71.5q-70 0 -114.5 -68.5
t-44.5 -213.5q0 -296 162 -296q68 0 112.5 71t44.5 222z" />
    <glyph glyph-name="one" unicode="1" horiz-adv-x="562" 
d="M242 0v606h-92v76h174v-682h-82z" />
    <glyph glyph-name="two" unicode="2" horiz-adv-x="562" 
d="M82 0v76l219 243q51 57 76.5 102.5t25.5 94.5t-30.5 81.5t-84.5 32.5q-49 0 -82 -32.5t-33 -87.5h-87q3 85 61 139.5t143 54.5q95 0 147 -52.5t52 -127.5q0 -66 -32 -122.5t-97 -128.5l-179 -197h320v-76h-419z" />
    <glyph glyph-name="three" unicode="3" horiz-adv-x="562" 
d="M179 533h-85q7 68 58.5 119.5t143.5 51.5q87 0 140.5 -49.5t53.5 -124.5q0 -59 -36.5 -99.5t-90.5 -55.5v-2q66 -10 109 -57.5t43 -125.5q0 -89 -57.5 -150t-162.5 -61q-98 0 -155 53t-65 134h88q9 -51 44.5 -82t92.5 -31t93.5 39t36.5 96q0 60 -38.5 100t-118.5 41h-38
v76h33q61 0 98.5 32t37.5 89q0 42 -27.5 73t-81.5 31q-55 0 -83.5 -28.5t-32.5 -68.5z" />
    <glyph glyph-name="four" unicode="4" horiz-adv-x="562" 
d="M522 164h-87v-164h-82v164h-314v71l318 447h78v-442h87v-76zM304 491l-177 -251h226v247q0 48 1 76h-3q-13 -24 -47 -72z" />
    <glyph glyph-name="five" unicode="5" horiz-adv-x="562" 
d="M200 606l-19 -181q40 11 90 11q109 0 175.5 -58.5t66.5 -161.5q0 -42 -15 -83.5t-43 -76.5t-74 -56.5t-102 -21.5q-99 0 -160 54t-69 134h88q8 -49 44.5 -81t99.5 -32q61 0 103 42t42 109q0 76 -43.5 116t-125.5 40q-73 0 -165 -27l33 349h340v-76h-266z" />
    <glyph glyph-name="six" unicode="6" horiz-adv-x="562" 
d="M32 223q0 94 72 193l193 266h92l-168 -227q27 12 77 12q99 0 165 -71t66 -173t-72 -173.5t-177 -71.5q-106 0 -177 69.5t-71 175.5zM118 222q0 -73 46 -121.5t116 -48.5t116.5 48.5t46.5 121.5t-45 122.5t-118 49.5q-72 0 -117 -48t-45 -124z" />
    <glyph glyph-name="seven" unicode="7" horiz-adv-x="562" 
d="M501 682v-70l-296 -612h-90l299 606h-332v76h419z" />
    <glyph glyph-name="eight" unicode="8" horiz-adv-x="562" 
d="M164 517q0 -51 34.5 -84.5t81.5 -33.5q53 0 85.5 32.5t32.5 85.5q0 50 -32.5 80.5t-84.5 30.5q-49 0 -83 -30.5t-34 -80.5zM142 188q0 -59 39 -97t101 -38t100 35t38 100q0 61 -38.5 99t-98.5 38q-62 0 -101.5 -38.5t-39.5 -98.5zM505 187q0 -89 -57.5 -148.5
t-165.5 -59.5t-166.5 59t-58.5 144q0 133 125 182v2q-104 43 -104 156q0 76 57 129t147 53q89 0 145.5 -53t56.5 -129q0 -57 -28 -98.5t-73 -57.5v-2q122 -44 122 -177z" />
    <glyph glyph-name="nine" unicode="9" horiz-adv-x="562" 
d="M530 459q0 -94 -72 -193l-193 -266h-92l168 227q-27 -12 -77 -12q-99 0 -165 71t-66 173t72 173.5t177 71.5q106 0 177 -69.5t71 -175.5zM444 460q0 73 -46 121.5t-116 48.5t-116.5 -48.5t-46.5 -121.5t45 -122.5t118 -49.5q72 0 117 48t45 124z" />
    <glyph glyph-name="colon" unicode=":" horiz-adv-x="229" 
d="M60 352v110h110v-110h-110zM60 0v110h110v-110h-110z" />
    <glyph glyph-name="semicolon" unicode=";" horiz-adv-x="229" 
d="M60 0v110h110v-60q0 -102 -54 -185h-55q32 49 40 135h-41zM60 352v110h110v-110h-110z" />
    <glyph glyph-name="less" unicode="&#x3c;" horiz-adv-x="672" 
d="M592 0l-513 234v63l513 233v-82l-410 -182v-2l410 -181v-83z" />
    <glyph glyph-name="equal" unicode="=" horiz-adv-x="672" 
d="M595 343h-519v73h519v-73zM595 114h-519v74h519v-74z" />
    <glyph glyph-name="greater" unicode="&#x3e;" horiz-adv-x="672" 
d="M592 233l-513 -233v83l410 180v3l-410 182v82l513 -234v-63z" />
    <glyph glyph-name="question" unicode="?" horiz-adv-x="435" 
d="M313 322q-32 -32 -45 -61.5t-13 -71.5h-73q0 58 11 94t45 75q8 10 30 34t28.5 32t18 25.5t15 32.5t3.5 34q0 49 -31 81.5t-85 32.5q-48 0 -81 -32.5t-33 -87.5h-87q2 85 60 139.5t144 54.5q95 0 147 -52.5t52 -127.5q0 -45 -19.5 -87t-37 -62.5t-49.5 -52.5zM174 0v88h88
v-88h-88z" />
    <glyph glyph-name="at" unicode="@" horiz-adv-x="949" 
d="M879 356q0 -116 -55 -191t-135 -75q-49 0 -78.5 23t-34.5 64h-5q-21 -38 -62 -62.5t-79 -24.5q-71 0 -114 52.5t-43 136.5q0 99 57 172t144 73q80 0 122 -74h1l11 63h67l-40 -259q-4 -26 -4 -47q0 -28 16 -44.5t48 -16.5q49 0 81.5 58.5t32.5 146.5q0 139 -84.5 218
t-241.5 79q-152 0 -248 -105t-96 -255q0 -146 91.5 -234.5t246.5 -88.5q127 0 202 36l22 -49q-88 -43 -232 -43q-178 0 -289 104t-111 276q0 176 117 295.5t301 119.5q103 0 181.5 -30.5t122.5 -81.5t66 -110.5t22 -125.5zM581 341q0 60 -26.5 93.5t-74.5 33.5
q-65 0 -101 -57.5t-36 -133.5q0 -59 26.5 -95t72.5 -36q61 0 100 60.5t39 134.5z" />
    <glyph glyph-name="A" unicode="A" horiz-adv-x="636" 
d="M7 0l278 682h74l270 -682h-91l-70 184h-302l-71 -184h-88zM268 449l-74 -191h246l-72 192q-27 71 -47 138h-4q-18 -59 -49 -139z" />
    <glyph glyph-name="B" unicode="B" horiz-adv-x="540" 
d="M74 0v682h151q105 0 164 -47t59 -127q0 -105 -111 -145v-2q77 -8 118.5 -56t41.5 -117q0 -92 -63.5 -140t-163.5 -48h-196zM411 194q0 57 -39 89t-110 32h-105v-239h119q67 0 101 32t34 86zM363 501q0 53 -38 79t-100 26h-68v-215h74q61 0 96.5 30.5t35.5 79.5z" />
    <glyph glyph-name="C" unicode="C" horiz-adv-x="764" 
d="M390 704q67 0 122 -18t92 -48.5t60.5 -62.5t38.5 -68h-94q-26 55 -82.5 89t-137.5 34q-109 0 -187 -77t-78 -211q0 -123 76.5 -206.5t193.5 -83.5q82 0 139.5 36.5t85.5 99.5h94q-99 -210 -323 -210q-156 0 -254 103.5t-98 261.5q0 156 101 258.5t251 102.5z" />
    <glyph glyph-name="D" unicode="D" horiz-adv-x="705" 
d="M74 682h221q177 0 274.5 -97t97.5 -244q0 -145 -100 -243t-274 -98h-219v682zM157 76h141q136 0 209.5 75t73.5 190q0 120 -74.5 192.5t-208.5 72.5h-141v-530z" />
    <glyph glyph-name="E" unicode="E" horiz-adv-x="523" 
d="M448 682v-76h-291v-215h280v-76h-280v-239h302v-76h-385v682h374z" />
    <glyph glyph-name="F" unicode="F" horiz-adv-x="495" 
d="M448 682v-76h-291v-226h280v-76h-280v-304h-83v682h374z" />
    <glyph glyph-name="G" unicode="G" horiz-adv-x="776" 
d="M358 364h380v-9q0 -165 -94.5 -271t-252.5 -106q-154 0 -253.5 107.5t-99.5 255.5q0 150 101.5 256.5t252.5 106.5q121 0 203.5 -54t118.5 -144h-92q-27 56 -87 90t-143 34q-121 0 -194.5 -82.5t-73.5 -202.5q0 -131 78 -212t196 -81q103 0 173 66.5t79 169.5h-292v76z
" />
    <glyph glyph-name="H" unicode="H" horiz-adv-x="689" 
d="M532 0v315h-375v-315h-83v682h83v-291h375v291h83v-682h-83z" />
    <glyph glyph-name="I" unicode="I" horiz-adv-x="231" 
d="M74 0v682h83v-682h-83z" />
    <glyph glyph-name="J" unicode="J" horiz-adv-x="345" 
d="M200 175v507h82v-506q0 -196 -170 -196q-56 0 -98 20v74q42 -20 90 -20q50 0 73 27.5t23 93.5z" />
    <glyph glyph-name="K" unicode="K" horiz-adv-x="597" 
d="M498 0l-270 330q-12 -12 -35.5 -37t-35.5 -37v-256h-83v682h83v-320l307 320h110l-286 -291l320 -391h-110z" />
    <glyph glyph-name="L" unicode="L" horiz-adv-x="473" 
d="M74 0v682h83v-606h302v-76h-385z" />
    <glyph glyph-name="M" unicode="M" horiz-adv-x="815" 
d="M698 682l75 -682h-81l-39 398q-9 99 -16 181h-3q-19 -62 -58 -182l-133 -397h-72l-133 408q-51 157 -55 171h-4q-7 -101 -15 -170l-42 -409h-80l79 682h101l148 -439q23 -66 37 -125h4q12 49 38 125l149 439h100z" />
    <glyph glyph-name="N" unicode="N" horiz-adv-x="670" 
d="M152 551h-2q2 -74 2 -143v-408h-78v682h78l222 -328q116 -172 144 -224h2q-2 39 -2 145v407h78v-682h-78l-222 328q-118 174 -144 223z" />
    <glyph glyph-name="O" unicode="O" horiz-adv-x="799" 
d="M124 341q0 -124 79 -206.5t196 -82.5t196.5 82.5t79.5 206.5t-77 206.5t-199 82.5q-117 0 -196 -82t-79 -207zM38 341q0 149 103.5 256t258.5 107q162 0 261.5 -107t99.5 -256q0 -151 -104 -257t-257 -106q-89 0 -160.5 32.5t-114.5 86t-65 116t-22 128.5z" />
    <glyph glyph-name="P" unicode="P" horiz-adv-x="540" 
d="M437 470q0 63 -39 99.5t-119 36.5h-122v-271h119q161 0 161 135zM74 0v682h198q114 0 182 -53t68 -157q0 -101 -63 -156.5t-194 -55.5h-108v-260h-83z" />
    <glyph glyph-name="Q" unicode="Q" horiz-adv-x="799" 
d="M663 -99l-97 117q-75 -40 -166 -40q-89 0 -160.5 32.5t-114.5 86t-65 116t-22 128.5q0 149 103.5 256t258.5 107q162 0 261.5 -107t99.5 -256q0 -82 -33.5 -154t-92.5 -123l92 -110zM124 341q0 -124 79 -206.5t196 -82.5q62 0 118 25l-92 111l64 53l97 -117q89 84 89 217
q0 124 -77 206.5t-199 82.5q-117 0 -196 -82t-79 -207z" />
    <glyph glyph-name="R" unicode="R" horiz-adv-x="565" 
d="M344 293l215 -293h-105l-206 285h-91v-285h-83v682h197q117 0 174 -59.5t57 -140.5q0 -71 -45.5 -123.5t-112.5 -65.5zM416 482q0 60 -35 92t-101 32h-123v-245h124q65 0 100 34.5t35 86.5z" />
    <glyph glyph-name="S" unicode="S" horiz-adv-x="545" 
d="M471 542h-89q-8 40 -37.5 65t-75.5 25q-52 0 -82.5 -29t-30.5 -74q0 -46 32.5 -74t96.5 -47q111 -33 157 -87t46 -137q0 -82 -57 -144t-157 -62q-88 0 -149 46.5t-82 139.5h91q30 -114 141 -114q61 0 95 39t34 90q0 57 -35.5 92.5t-110.5 58.5q-95 29 -140.5 76.5
t-45.5 122.5q0 74 55.5 124.5t141.5 50.5q82 0 136.5 -46t65.5 -116z" />
    <glyph glyph-name="T" unicode="T" horiz-adv-x="469" 
d="M193 0v606h-179v76h441v-76h-179v-606h-83z" />
    <glyph glyph-name="U" unicode="U" horiz-adv-x="625" 
d="M313 -22q-104 0 -176.5 71.5t-72.5 222.5v410h83v-422q0 -93 44.5 -150.5t121.5 -57.5q85 0 125.5 56t40.5 152v422h82v-408q0 -154 -68.5 -225t-179.5 -71z" />
    <glyph glyph-name="V" unicode="V" horiz-adv-x="598" 
d="M593 682l-255 -682h-78l-255 682h90l161 -456q28 -83 44 -131h2q9 30 45 132l163 455h83z" />
    <glyph glyph-name="W" unicode="W" horiz-adv-x="833" 
d="M557 0l-107 434q-21 87 -27 145h-4q-10 -67 -28 -142l-106 -437h-83l-186 682h85l112 -440q18 -70 30 -133h4q25 132 27 142l107 431h82l107 -438q18 -73 27 -135h4q11 76 26 134l105 439h85l-171 -682h-89z" />
    <glyph glyph-name="X" unicode="X" horiz-adv-x="564" 
d="M115 682l121 -187q25 -38 48 -78h3q21 38 48 80l119 185h91l-218 -326l228 -356h-97l-122 196q-10 15 -28 45.5t-28 45.5h-2l-57 -93l-120 -194h-92l227 352l-219 330h98z" />
    <glyph glyph-name="Y" unicode="Y" horiz-adv-x="532" 
d="M226 0v278l-214 404h93l130 -250q24 -46 36 -79h2q7 16 21 43.5t17 34.5l124 251h86l-212 -403v-279h-83z" />
    <glyph glyph-name="Z" unicode="Z" horiz-adv-x="601" 
d="M58 606v76h485v-72l-403 -534h419v-76h-518v71l403 535h-386z" />
    <glyph glyph-name="bracketleft" unicode="[" horiz-adv-x="353" 
d="M281 728v-70h-106v-788h106v-70h-182v928h182z" />
    <glyph glyph-name="backslash" unicode="\" horiz-adv-x="404" 
d="M398 -114h-80l-313 834h79z" />
    <glyph glyph-name="bracketright" unicode="]" horiz-adv-x="353" 
d="M72 658v70h182v-928h-182v70h106v788h-106z" />
    <glyph glyph-name="asciicircum" unicode="^" horiz-adv-x="672" 
d="M608 326h-86l-185 298h-3l-184 -298h-86l236 378h72z" />
    <glyph glyph-name="underscore" unicode="_" horiz-adv-x="550" 
d="M0 -238v74h550v-74h-550z" />
    <glyph glyph-name="grave" unicode="`" horiz-adv-x="328" 
d="M43 695l58 55l132 -150l-44 -42z" />
    <glyph glyph-name="a" unicode="a" horiz-adv-x="607" 
d="M538 479v-479h-79v64h-2q-67 -81 -175 -81q-101 0 -173.5 71.5t-72.5 185.5q0 111 71.5 183t179.5 72q99 0 171 -85h1v69h79zM118 240q0 -75 46 -131t129 -56q70 0 121.5 52.5t51.5 131.5q0 84 -49.5 136.5t-121.5 52.5q-85 0 -131 -55.5t-46 -130.5z" />
    <glyph glyph-name="b" unicode="b" horiz-adv-x="607" 
d="M69 0v720h79v-309h2q71 84 180 84q102 0 171.5 -73.5t69.5 -181.5q0 -113 -71.5 -185t-167.5 -72q-114 0 -182 81h-2v-64h-79zM489 240q0 76 -46.5 131t-129.5 55q-73 0 -122.5 -52.5t-49.5 -136.5q0 -80 51.5 -132t122.5 -52q82 0 128 56t46 131z" />
    <glyph glyph-name="c" unicode="c" horiz-adv-x="543" 
d="M288 495q92 0 146.5 -43.5t69.5 -95.5h-88q-33 70 -128 70q-72 0 -121 -48.5t-49 -137.5q0 -81 49.5 -134t125.5 -53q92 0 130 79h88q-22 -63 -76 -106t-143 -43q-112 0 -184 72.5t-72 185.5q0 108 69.5 181t182.5 73z" />
    <glyph glyph-name="d" unicode="d" horiz-adv-x="607" 
d="M538 720v-720h-79v64h-2q-67 -81 -179 -81q-101 0 -171.5 71.5t-70.5 185.5q0 109 69 182t173 73q62 0 103 -21.5t76 -62.5h2v309h79zM118 240q0 -75 46.5 -131t127.5 -56q72 0 123 52t51 132q0 84 -49.5 136.5t-122.5 52.5q-83 0 -129.5 -55.5t-46.5 -130.5z" />
    <glyph glyph-name="e" unicode="e" horiz-adv-x="547" 
d="M274 495q62 0 110 -24t74.5 -62t39.5 -79.5t13 -83.5q0 -19 -2 -29h-391q0 -65 51 -114.5t119 -49.5q74 0 123 58h91q-28 -53 -81.5 -90.5t-130.5 -37.5q-113 0 -183.5 75t-70.5 188q0 103 66 176t172 73zM274 426q-65 0 -107 -42.5t-48 -100.5h309q-6 59 -48.5 101
t-105.5 42z" />
    <glyph glyph-name="f" unicode="f" horiz-adv-x="299" 
d="M28 413v66h69v86q0 77 38.5 118.5t112.5 41.5q30 0 59 -8v-66q-24 8 -54 8q-38 0 -57 -22.5t-19 -62.5v-95h110v-66h-110v-413h-80v413h-69z" />
    <glyph glyph-name="g" unicode="g" horiz-adv-x="607" 
d="M538 479v-464q0 -132 -62 -202t-185 -70q-98 0 -159.5 49.5t-76.5 133.5h80q30 -114 159 -114q80 0 122.5 50t42.5 143v61h-2q-68 -83 -175 -83q-102 0 -174 71.5t-72 185.5q0 111 70 183t175 72q107 0 176 -85h2v69h79zM117 240q0 -75 47 -131t128 -56q71 0 122.5 52.5
t51.5 131.5q0 84 -49.5 136.5t-122.5 52.5q-83 0 -130 -55.5t-47 -130.5z" />
    <glyph glyph-name="h" unicode="h" horiz-adv-x="548" 
d="M69 0v720h79v-301h2q60 76 151 76q76 0 132.5 -52t56.5 -164v-279h-79v275q0 71 -32.5 110t-89.5 39q-66 0 -103.5 -43t-37.5 -125v-256h-79z" />
    <glyph glyph-name="i" unicode="i" horiz-adv-x="217" 
d="M69 0v479h79v-479h-79zM60 594v93h98v-93h-98z" />
    <glyph glyph-name="j" unicode="j" horiz-adv-x="217" 
d="M148 479v-540q0 -96 -41.5 -143t-115.5 -47q-43 0 -86 15v66q42 -15 79 -15q85 0 85 117v547h79zM60 594v93h98v-93h-98z" />
    <glyph glyph-name="k" unicode="k" horiz-adv-x="470" 
d="M381 0l-187 228l-46 -45v-183h-79v720h79v-443l200 202h98l-197 -196l231 -283h-99z" />
    <glyph glyph-name="l" unicode="l" horiz-adv-x="217" 
d="M69 0v720h79v-720h-79z" />
    <glyph glyph-name="m" unicode="m" horiz-adv-x="860" 
d="M69 0v479h79v-60h2q57 76 143 76q55 0 98 -28t58 -71q20 41 63.5 70t101.5 29q83 0 133 -56.5t50 -159.5v-279h-79v285q0 60 -29 99.5t-86 39.5q-55 0 -92.5 -40t-37.5 -118v-266h-80v285q0 61 -31 100t-83 39q-61 0 -96 -42t-35 -116v-266h-79z" />
    <glyph glyph-name="n" unicode="n" horiz-adv-x="553" 
d="M69 0v479h79v-60h2q59 76 151 76q76 0 132.5 -52.5t56.5 -163.5v-279h-79v274q0 72 -32.5 111t-89.5 39q-66 0 -103.5 -43.5t-37.5 -125.5v-255h-79z" />
    <glyph glyph-name="o" unicode="o" horiz-adv-x="584" 
d="M36 240q0 110 73.5 182.5t182.5 72.5q111 0 183.5 -73t72.5 -182q0 -107 -73 -182t-183 -75q-109 0 -182.5 74t-73.5 183zM118 240q0 -79 51.5 -132t122.5 -53q75 0 124.5 53t49.5 132q0 78 -48.5 131t-125.5 53q-76 0 -125 -52t-49 -132z" />
    <glyph glyph-name="p" unicode="p" horiz-adv-x="607" 
d="M69 -235v714h79v-68h2q71 84 180 84q110 0 175.5 -76t65.5 -179q0 -109 -69.5 -183t-174.5 -74q-109 0 -177 81h-2v-299h-79zM489 240q0 76 -46.5 131t-129.5 55q-73 0 -122.5 -52.5t-49.5 -136.5q0 -80 51.5 -132t122.5 -52q82 0 128 56t46 131z" />
    <glyph glyph-name="q" unicode="q" horiz-adv-x="607" 
d="M538 479v-714h-79v299h-2q-67 -81 -175 -81q-101 0 -173.5 71.5t-72.5 185.5q0 109 71.5 182t180.5 73q98 0 169 -84h2v68h79zM118 240q0 -75 46.5 -131t127.5 -56q72 0 123 52t51 132q0 84 -49.5 136.5t-122.5 52.5q-83 0 -129.5 -55.5t-46.5 -130.5z" />
    <glyph glyph-name="r" unicode="r" horiz-adv-x="342" 
d="M317 492v-73q-30 5 -46 5q-55 0 -89 -42t-34 -128v-254h-79v479h79v-60h2q14 28 49 52t78 24q23 0 40 -3z" />
    <glyph glyph-name="s" unicode="s" horiz-adv-x="425" 
d="M374 364h-80q-6 28 -27.5 46t-49.5 18q-35 0 -55.5 -18.5t-20.5 -45.5q0 -25 20.5 -44.5t80.5 -38.5q139 -45 139 -153q0 -66 -44 -105.5t-118 -39.5q-76 0 -119 39.5t-55 105.5h80q17 -77 97 -77q38 0 59 20t21 51q0 33 -22 54.5t-85 42.5q-68 22 -100 57t-32 89
q0 55 39.5 92.5t110.5 37.5q131 0 161 -131z" />
    <glyph glyph-name="t" unicode="t" horiz-adv-x="320" 
d="M17 413v66h63v153h79v-153h128v-66h-128v-253q0 -56 17.5 -77.5t57.5 -21.5q29 0 58 8v-65q-30 -10 -74 -10q-80 0 -109 45t-29 124v250h-63z" />
    <glyph glyph-name="u" unicode="u" horiz-adv-x="540" 
d="M471 479v-479h-79v59h-2q-56 -76 -145 -76q-73 0 -127.5 52.5t-54.5 163.5v280h79v-274q0 -72 31.5 -111t84.5 -39q63 0 98.5 43t35.5 125v256h79z" />
    <glyph glyph-name="v" unicode="v" horiz-adv-x="432" 
d="M430 479l-177 -479h-75l-177 479h81l100 -279q24 -66 33 -111h4q13 56 32 111l99 279h80z" />
    <glyph glyph-name="w" unicode="w" horiz-adv-x="690" 
d="M437 0l-70 283q-11 48 -21 104h-4q-10 -68 -24 -124l-64 -263h-103l-126 479h80l75 -316q12 -52 20 -95h4q5 27 23 100l75 311h86l78 -315q10 -41 21 -96h3q7 50 18 95l77 316h79l-126 -479h-101z" />
    <glyph glyph-name="x" unicode="x" horiz-adv-x="485" 
d="M23 0l177 246l-166 233h92l85 -120q8 -12 18 -28t14 -22h2q5 8 16 23.5t17 23.5l83 123h91l-167 -231l178 -248h-93l-93 133q-6 9 -17.5 25t-17.5 25h-3l-36 -51l-90 -132h-90z" />
    <glyph glyph-name="y" unicode="y" horiz-adv-x="432" 
d="M430 479l-264 -714h-76l87 235l-176 479h81l101 -279q25 -63 32 -101h2q27 84 33 101l100 279h80z" />
    <glyph glyph-name="z" unicode="z" horiz-adv-x="482" 
d="M53 413v66h376v-62l-288 -350h300v-67h-400v63l289 350h-277z" />
    <glyph glyph-name="braceleft" unicode="{" horiz-adv-x="380" 
d="M306 741v-58q-63 -3 -63 -83v-208q0 -94 -79 -129v-2q79 -32 79 -141v-195q0 -79 63 -82v-58q-67 1 -104.5 42t-37.5 116v209q0 35 -21.5 58t-61.5 27v51q40 4 61.5 27t21.5 57v210q0 75 37.5 116t104.5 43z" />
    <glyph glyph-name="bar" unicode="|" horiz-adv-x="380" 
d="M225 -210h-72v1000h72v-1000z" />
    <glyph glyph-name="braceright" unicode="}" horiz-adv-x="380" 
d="M74 683v58q67 -2 104.5 -43t37.5 -116v-210q0 -34 21.5 -57t61.5 -27v-51q-40 -4 -61.5 -27t-21.5 -58v-209q0 -75 -37.5 -116t-104.5 -42v58q63 3 63 82v195q0 109 79 141v2q-79 35 -79 129v208q0 80 -63 83z" />
    <glyph glyph-name="asciitilde" unicode="~" horiz-adv-x="672" 
d="M614 293q-33 -53 -71 -78t-91 -25q-59 0 -125 37q-69 39 -107 39q-34 0 -59 -17.5t-51 -55.5l-52 37q64 104 160 104q56 0 125 -38q68 -39 109 -39q64 0 109 73z" />
    <glyph glyph-name="uni00A0" unicode="&#xa0;" horiz-adv-x="250" 
 />
    <glyph glyph-name="exclamdown" unicode="&#xa1;" horiz-adv-x="229" 
d="M159 682v-88h-88v88h88zM159 0h-88l8 493h72z" />
    <glyph glyph-name="cent" unicode="&#xa2;" horiz-adv-x="562" 
d="M259 0v93q-92 15 -152 83t-60 172q0 96 58 166.5t154 84.5v83h67v-81q80 -7 127.5 -48.5t61.5 -89.5h-84q-27 58 -105 70v-373q79 9 112 79h84q-20 -56 -71 -99t-125 -49v-91h-67zM129 347q0 -68 35.5 -118t94.5 -65v366q-57 -13 -93.5 -61t-36.5 -122z" />
    <glyph glyph-name="sterling" unicode="&#xa3;" horiz-adv-x="562" 
d="M415 389v-71h-199q9 -54 9 -91q0 -79 -51 -121q34 0 117 -27q78 -26 109 -26q57 0 59 105h78q-2 -78 -32.5 -129t-96.5 -51q-51 0 -144 31q-76 24 -104 24q-53 0 -107 -31v72q45 19 71 58.5t26 80.5q0 58 -11 105h-86v71h67q-14 70 -14 128q0 80 51 134t145 54
q89 0 142.5 -54t57.5 -139h-83q-1 54 -34.5 87.5t-80.5 33.5q-54 0 -84.5 -34.5t-30.5 -89.5q0 -57 12 -120h214z" />
    <glyph glyph-name="currency" unicode="&#xa4;" horiz-adv-x="618" 
d="M535 174l-43 -44l-67 67q-51 -39 -117 -39t-117 39l-67 -67l-42 44l68 65q-39 54 -39 115q0 65 39 115l-68 66l42 44l67 -67q54 38 117 38q68 0 116 -38l68 67l43 -44l-68 -66q38 -51 38 -115q0 -62 -38 -115q33 -33 68 -65zM444 355q0 58 -41 96.5t-94 38.5
q-58 0 -97.5 -40t-39.5 -95q0 -56 40 -96.5t96 -40.5t96 40.5t40 96.5z" />
    <glyph glyph-name="yen" unicode="&#xa5;" horiz-adv-x="562" 
d="M58 283v67h146l-176 332h89l126 -247q28 -54 39 -84h2q14 35 37 83l124 248h89l-177 -332h147v-67h-182v-91h182v-67h-182v-125h-82v125h-182v67h182v91h-182z" />
    <glyph glyph-name="brokenbar" unicode="&#xa6;" horiz-adv-x="380" 
d="M225 390h-72v300h72v-300zM225 -110h-72v300h72v-300z" />
    <glyph glyph-name="section" unicode="&#xa7;" horiz-adv-x="430" 
d="M377 331q0 -80 -78 -117q61 -40 61 -114q0 -58 -40 -99.5t-114 -41.5q-73 0 -112 37.5t-43 102.5h74q3 -77 82 -77q36 0 57 21.5t21 51.5q0 31 -19 53t-67 41q-71 29 -107.5 66t-36.5 94q0 37 21.5 66.5t59.5 41.5q-65 45 -65 116q0 56 40 93.5t110 37.5q66 0 103.5 -36
t39.5 -90h-71q-3 29 -23 45t-51 16q-40 0 -57 -19t-17 -44q0 -30 22 -51t89 -51q121 -53 121 -143zM302 328q0 33 -24 52.5t-83 43.5q-27 -4 -46.5 -23t-19.5 -47q0 -35 23 -56t90 -52q60 24 60 82z" />
    <glyph glyph-name="dieresis" unicode="&#xa8;" horiz-adv-x="328" 
d="M31 596v88h92v-88h-92zM205 596v88h92v-88h-92z" />
    <glyph glyph-name="copyright" unicode="&#xa9;" horiz-adv-x="826" 
d="M415 550q73 0 117 -39.5t57 -93.5h-73q-19 69 -101 69q-54 0 -88.5 -36.5t-34.5 -103.5q0 -61 34.5 -100.5t91.5 -39.5q38 0 65.5 20.5t36.5 56.5h73q-16 -62 -63 -101t-115 -39q-87 0 -140 57.5t-53 147.5q0 87 55 144.5t138 57.5zM50 341q0 150 106.5 256.5
t256.5 106.5q151 0 257 -106.5t106 -256.5t-106 -256.5t-257 -106.5q-150 0 -256.5 106.5t-106.5 256.5zM99 341q0 -130 92 -222t222 -92t222 92t92 222t-92 222t-222 92t-222 -92t-92 -222z" />
    <glyph glyph-name="ordfeminine" unicode="&#xaa;" horiz-adv-x="376" 
d="M350 388v-56q-12 -7 -36 -7t-41 14t-21 41q-40 -58 -112 -58q-48 0 -78.5 26.5t-30.5 75.5q0 55 53.5 93t165.5 47v3q0 80 -64 80q-65 0 -77 -52h-65q9 50 48 79.5t94 29.5q62 0 96.5 -36t34.5 -108v-133q0 -42 20 -42q5 0 13 3zM250 485v23q-81 -8 -115.5 -30.5
t-34.5 -50.5q0 -47 55 -47q44 0 69.5 28.5t25.5 76.5z" />
    <glyph glyph-name="guillemotleft" unicode="&#xab;" horiz-adv-x="466" 
d="M232 248l125 203l54 -29l-90 -174l90 -174l-54 -30zM60 248l125 203l54 -29l-90 -174l90 -174l-54 -30z" />
    <glyph glyph-name="logicalnot" unicode="&#xac;" horiz-adv-x="672" 
d="M595 111h-76v194h-443v72h519v-266z" />
    <glyph glyph-name="uni00AD" unicode="&#xad;" horiz-adv-x="471" 
d="M405 224h-322v80h322v-80z" />
    <glyph glyph-name="registered" unicode="&#xae;" horiz-adv-x="485" 
d="M37 498q0 85 60.5 145.5t145.5 60.5t145 -60.5t60 -145.5t-60 -145t-145 -60t-145.5 60t-60.5 145zM76 498q0 -69 49 -117.5t118 -48.5t117.5 48.5t48.5 117.5q0 68 -48.5 117t-117.5 49q-68 0 -117.5 -49t-49.5 -117zM284 478l66 -90h-54l-61 85h-26v-85h-47v226h88
q43 0 65 -20.5t22 -49.5q0 -25 -15 -43t-38 -23zM287 542q0 35 -43 35h-35v-69h34q44 0 44 34z" />
    <glyph glyph-name="macron" unicode="&#xaf;" horiz-adv-x="328" 
d="M298 604h-268v65h268v-65z" />
    <glyph glyph-name="degree" unicode="&#xb0;" horiz-adv-x="361" 
d="M55 571q0 52 37 88.5t89 36.5t88.5 -36.5t36.5 -88.5t-36.5 -88.5t-88.5 -36.5t-89 36.5t-37 88.5zM106 570q0 -31 21.5 -52.5t53.5 -21.5q31 0 52.5 21.5t21.5 52.5q0 32 -21.5 54t-52.5 22t-53 -22t-22 -54z" />
    <glyph glyph-name="plusminus" unicode="&#xb1;" horiz-adv-x="672" 
d="M593 0h-515v74h515v-74zM593 328h-221v-187h-74v187h-220v74h220v189h74v-189h221v-74z" />
    <glyph glyph-name="twosuperior" unicode="&#xb2;" 
d="M59 425v52l143 152q24 27 35.5 40.5t22 35t10.5 41.5q0 29 -18.5 46.5t-50.5 17.5q-66 0 -71 -74h-73q3 60 41 98t106 38q65 0 104 -35t39 -88q0 -40 -21.5 -74t-73.5 -88l-93 -98h194v-64h-294z" />
    <glyph glyph-name="threesuperior" unicode="&#xb3;" 
d="M125 750h-72q3 53 41 87.5t103 34.5q66 0 103.5 -31t37.5 -81q0 -36 -22 -61.5t-56 -34.5v-2q42 -9 67.5 -39t25.5 -75q0 -57 -41 -97t-116 -40q-71 0 -110.5 35.5t-45.5 97.5h73q11 -73 84 -73q38 0 60 23t22 59q0 33 -24 55t-71 22h-29v57h25q38 0 60.5 17.5t22.5 46.5
q0 28 -17.5 45t-50.5 17t-50 -18.5t-20 -44.5z" />
    <glyph glyph-name="acute" unicode="&#xb4;" horiz-adv-x="328" 
d="M95 600l132 150l58 -55l-146 -137z" />
    <glyph glyph-name="mu" unicode="&#xb5;" horiz-adv-x="550" 
d="M63 -213v692h79v-274q0 -71 30 -110.5t87 -39.5q63 0 97.5 44t34.5 124v256h80v-369q0 -28 7 -39t29 -11q9 0 21 3v-70q-17 -5 -38 -5q-44 0 -65 18.5t-27 61.5h-2q-57 -85 -152 -85q-64 0 -110 36l-3 -2q11 -44 11 -122v-108h-79z" />
    <glyph glyph-name="paragraph" unicode="&#xb6;" horiz-adv-x="560" 
d="M483 621h-65v-621h-65v621h-80v-621h-64v369q-79 1 -126 45t-47 113q0 74 48 114.5t128 40.5h271v-61z" />
    <glyph glyph-name="periodcentered" unicode="&#xb7;" horiz-adv-x="229" 
d="M65 300v110h110v-110h-110z" />
    <glyph glyph-name="cedilla" unicode="&#xb8;" horiz-adv-x="328" 
d="M140 0h62l-16 -39q36 -8 58 -33t22 -60q0 -46 -30 -74.5t-84 -28.5q-53 0 -98 15l20 56q26 -11 67 -11q57 0 57 39q0 47 -95 47z" />
    <glyph glyph-name="onesuperior" unicode="&#xb9;" 
d="M170 425v372h-67v62h140v-434h-73z" />
    <glyph glyph-name="ordmasculine" unicode="&#xba;" horiz-adv-x="448" 
d="M32 515q0 84 55 136.5t137 52.5q84 0 138 -55t54 -134q0 -82 -53.5 -136.5t-138.5 -54.5q-83 0 -137.5 53t-54.5 138zM107 514q0 -52 33 -87.5t84 -35.5t84 35t33 88q0 52 -33 87.5t-84 35.5q-50 0 -83.5 -32.5t-33.5 -90.5z" />
    <glyph glyph-name="guillemotright" unicode="&#xbb;" horiz-adv-x="466" 
d="M234 247l-125 -203l-54 29l90 174l-90 174l54 30zM406 247l-125 -203l-54 29l90 174l-90 174l54 30z" />
    <glyph glyph-name="onequarter" unicode="&#xbc;" horiz-adv-x="906" 
d="M170 250v372h-67v62h140v-434h-73zM651 682h77l-453 -682h-77zM876 85h-65v-85h-73v85h-203v56l209 293h67v-290h65v-59zM706 281l-98 -137h130v139q0 11 0.5 19t1.5 16t1 14h-3q-10 -21 -32 -51z" />
    <glyph glyph-name="onehalf" unicode="&#xbd;" horiz-adv-x="956" 
d="M170 250v372h-67v62h140v-434h-73zM651 682h77l-453 -682h-77zM617 0v52l143 152q24 27 35.5 40.5t22 35t10.5 41.5q0 29 -18.5 46.5t-50.5 17.5q-66 0 -71 -74h-73q3 60 41 98t106 38q65 0 104 -35t39 -88q0 -40 -21.5 -74t-73.5 -88l-93 -98h194v-64h-294z" />
    <glyph glyph-name="threequarters" unicode="&#xbe;" horiz-adv-x="936" 
d="M125 575h-72q3 53 41 87.5t103 34.5q66 0 103.5 -31t37.5 -81q0 -36 -22 -61.5t-56 -34.5v-2q42 -9 67.5 -39t25.5 -75q0 -57 -41 -97t-116 -40q-71 0 -110.5 35.5t-45.5 97.5h73q11 -73 84 -73q38 0 60 23t22 59q0 33 -24 55t-71 22h-29v57h25q38 0 60.5 17.5t22.5 46.5
q0 28 -17.5 45t-50.5 17t-50 -18.5t-20 -44.5zM681 682h77l-453 -682h-77zM906 85h-65v-85h-73v85h-203v56l209 293h67v-290h65v-59zM736 281l-98 -137h130v139q0 11 0.5 19t1.5 16t1 14h-3q-10 -21 -32 -51z" />
    <glyph glyph-name="questiondown" unicode="&#xbf;" horiz-adv-x="435" 
d="M122 360q32 32 45 61.5t13 71.5h73q0 -58 -11 -94t-45 -75q-8 -10 -30 -34t-28.5 -32t-18 -25.5t-15 -32.5t-3.5 -34q0 -49 31 -81.5t85 -32.5q48 0 81 32.5t33 87.5h87q-2 -85 -60 -139.5t-144 -54.5q-95 0 -147 52.5t-52 127.5q0 45 19.5 87t37 62.5t49.5 52.5z
M261 682v-88h-88v88h88z" />
    <glyph glyph-name="Agrave" unicode="&#xc0;" horiz-adv-x="636" 
d="M12 0l278 682h74l270 -682h-91l-70 184h-302l-71 -184h-88zM273 449l-74 -191h246l-72 192q-27 71 -47 138h-4q-18 -59 -49 -139zM199 819l38 71l173 -100l-29 -54z" />
    <glyph glyph-name="Aacute" unicode="&#xc1;" horiz-adv-x="636" 
d="M12 0l278 682h74l270 -682h-91l-70 184h-302l-71 -184h-88zM273 449l-74 -191h246l-72 192q-27 71 -47 138h-4q-18 -59 -49 -139zM413 890l38 -71l-182 -83l-29 54z" />
    <glyph glyph-name="Acircumflex" unicode="&#xc2;" horiz-adv-x="636" 
d="M12 0l278 682h74l270 -682h-91l-70 184h-302l-71 -184h-88zM273 449l-74 -191h246l-72 192q-27 71 -47 138h-4q-18 -59 -49 -139zM325 885l140 -98l-27 -49l-113 58l-113 -58l-27 49z" />
    <glyph glyph-name="Atilde" unicode="&#xc3;" horiz-adv-x="636" 
d="M12 0l278 682h74l270 -682h-91l-70 184h-302l-71 -184h-88zM273 449l-74 -191h246l-72 192q-27 71 -47 138h-4q-18 -59 -49 -139zM225 773h-60q6 116 93 116q37 0 76 -33q37 -30 60 -30q30 0 31 55h60q-5 -116 -95 -116q-43 0 -81 32q-38 31 -53 31q-28 0 -31 -55z" />
    <glyph glyph-name="Adieresis" unicode="&#xc4;" horiz-adv-x="636" 
d="M12 0l278 682h74l270 -682h-91l-70 184h-302l-71 -184h-88zM273 449l-74 -191h246l-72 192q-27 71 -47 138h-4q-18 -59 -49 -139zM192 776v88h92v-88h-92zM366 776v88h92v-88h-92z" />
    <glyph glyph-name="Aring" unicode="&#xc5;" horiz-adv-x="636" 
d="M12 0l278 682h74l270 -682h-91l-70 184h-302l-71 -184h-88zM273 449l-74 -191h246l-72 192q-27 71 -47 138h-4q-18 -59 -49 -139zM258 838q0 -28 20 -48t48 -20t47 20t19 48t-19 47t-47 19t-48 -19t-20 -47zM203 838q0 50 35.5 85.5t87.5 35.5q50 0 85.5 -35.5
t35.5 -85.5q0 -51 -35.5 -87t-85.5 -36q-52 0 -87.5 36t-35.5 87z" />
    <glyph glyph-name="AE" unicode="&#xc6;" horiz-adv-x="863" 
d="M788 682v-76h-269v-215h258v-76h-258v-239h280v-76h-363v184h-251l-98 -184h-92l375 682h418zM413 606l-189 -348h212v348h-23z" />
    <glyph glyph-name="Ccedilla" unicode="&#xc7;" horiz-adv-x="764" 
d="M390 704q67 0 122 -18t92 -48.5t60.5 -62.5t38.5 -68h-94q-26 55 -82.5 89t-137.5 34q-109 0 -187 -77t-78 -211q0 -123 76.5 -206.5t193.5 -83.5q82 0 139.5 36.5t85.5 99.5h94q-93 -197 -295 -209l-7 -18q36 -8 58 -33t22 -60q0 -46 -30 -74.5t-84 -28.5q-53 0 -98 15
l20 56q26 -11 67 -11q57 0 57 39q0 47 -95 47l28 69q-142 11 -230 112.5t-88 250.5q0 156 101 258.5t251 102.5z" />
    <glyph glyph-name="Egrave" unicode="&#xc8;" horiz-adv-x="523" 
d="M453 682v-76h-291v-215h280v-76h-280v-239h302v-76h-385v682h374zM140 819l38 71l173 -100l-29 -54z" />
    <glyph glyph-name="Eacute" unicode="&#xc9;" horiz-adv-x="523" 
d="M453 682v-76h-291v-215h280v-76h-280v-239h302v-76h-385v682h374zM354 890l38 -71l-182 -83l-29 54z" />
    <glyph glyph-name="Ecircumflex" unicode="&#xca;" horiz-adv-x="523" 
d="M453 682v-76h-291v-215h280v-76h-280v-239h302v-76h-385v682h374zM266 885l140 -98l-27 -49l-113 58l-113 -58l-27 49z" />
    <glyph glyph-name="Edieresis" unicode="&#xcb;" horiz-adv-x="523" 
d="M453 682v-76h-291v-215h280v-76h-280v-239h302v-76h-385v682h374zM133 776v88h92v-88h-92zM307 776v88h92v-88h-92z" />
    <glyph glyph-name="Igrave" unicode="&#xcc;" horiz-adv-x="231" 
d="M79 0v682h83v-682h-83zM-6 819l38 71l173 -100l-29 -54z" />
    <glyph glyph-name="Iacute" unicode="&#xcd;" horiz-adv-x="231" 
d="M79 0v682h83v-682h-83zM208 890l38 -71l-182 -83l-29 54z" />
    <glyph glyph-name="Icircumflex" unicode="&#xce;" horiz-adv-x="231" 
d="M79 0v682h83v-682h-83zM120 885l140 -98l-27 -49l-113 58l-113 -58l-27 49z" />
    <glyph glyph-name="Idieresis" unicode="&#xcf;" horiz-adv-x="231" 
d="M79 0v682h83v-682h-83zM-13 776v88h92v-88h-92zM161 776v88h92v-88h-92z" />
    <glyph glyph-name="Eth" unicode="&#xd0;" horiz-adv-x="727" 
d="M15 316v76h81v290h221q177 0 274.5 -97t97.5 -244q0 -145 -100 -243t-274 -98h-219v316h-81zM179 76h141q136 0 209.5 75t73.5 190q0 120 -74.5 192.5t-208.5 72.5h-141v-214h198v-76h-198v-240z" />
    <glyph glyph-name="Ntilde" unicode="&#xd1;" horiz-adv-x="670" 
d="M157 551h-2q2 -74 2 -143v-408h-78v682h78l222 -328q116 -172 144 -224h2q-2 39 -2 145v407h78v-682h-78l-222 328q-118 174 -144 223zM240 773h-60q6 116 93 116q37 0 76 -33q37 -30 60 -30q30 0 31 55h60q-5 -116 -95 -116q-43 0 -81 32q-38 31 -53 31q-28 0 -31 -55z
" />
    <glyph glyph-name="Ograve" unicode="&#xd2;" horiz-adv-x="799" 
d="M129 341q0 -124 79 -206.5t196 -82.5t196.5 82.5t79.5 206.5t-77 206.5t-199 82.5q-117 0 -196 -82t-79 -207zM43 341q0 149 103.5 256t258.5 107q162 0 261.5 -107t99.5 -256q0 -151 -104 -257t-257 -106q-89 0 -160.5 32.5t-114.5 86t-65 116t-22 128.5zM278 819l38 71
l173 -100l-29 -54z" />
    <glyph glyph-name="Oacute" unicode="&#xd3;" horiz-adv-x="799" 
d="M129 341q0 -124 79 -206.5t196 -82.5t196.5 82.5t79.5 206.5t-77 206.5t-199 82.5q-117 0 -196 -82t-79 -207zM43 341q0 149 103.5 256t258.5 107q162 0 261.5 -107t99.5 -256q0 -151 -104 -257t-257 -106q-89 0 -160.5 32.5t-114.5 86t-65 116t-22 128.5zM492 890
l38 -71l-182 -83l-29 54z" />
    <glyph glyph-name="Ocircumflex" unicode="&#xd4;" horiz-adv-x="799" 
d="M129 341q0 -124 79 -206.5t196 -82.5t196.5 82.5t79.5 206.5t-77 206.5t-199 82.5q-117 0 -196 -82t-79 -207zM43 341q0 149 103.5 256t258.5 107q162 0 261.5 -107t99.5 -256q0 -151 -104 -257t-257 -106q-89 0 -160.5 32.5t-114.5 86t-65 116t-22 128.5zM404 885
l140 -98l-27 -49l-113 58l-113 -58l-27 49z" />
    <glyph glyph-name="Otilde" unicode="&#xd5;" horiz-adv-x="799" 
d="M129 341q0 -124 79 -206.5t196 -82.5t196.5 82.5t79.5 206.5t-77 206.5t-199 82.5q-117 0 -196 -82t-79 -207zM43 341q0 149 103.5 256t258.5 107q162 0 261.5 -107t99.5 -256q0 -151 -104 -257t-257 -106q-89 0 -160.5 32.5t-114.5 86t-65 116t-22 128.5zM304 773h-60
q6 116 93 116q37 0 76 -33q37 -30 60 -30q30 0 31 55h60q-5 -116 -95 -116q-43 0 -81 32q-38 31 -53 31q-28 0 -31 -55z" />
    <glyph glyph-name="Odieresis" unicode="&#xd6;" horiz-adv-x="799" 
d="M129 341q0 -124 79 -206.5t196 -82.5t196.5 82.5t79.5 206.5t-77 206.5t-199 82.5q-117 0 -196 -82t-79 -207zM43 341q0 149 103.5 256t258.5 107q162 0 261.5 -107t99.5 -256q0 -151 -104 -257t-257 -106q-89 0 -160.5 32.5t-114.5 86t-65 116t-22 128.5zM271 776v88h92
v-88h-92zM445 776v88h92v-88h-92z" />
    <glyph glyph-name="multiply" unicode="&#xd7;" horiz-adv-x="672" 
d="M581 59l-52 -52l-194 198l-195 -198l-52 52l195 196l-196 197l52 52l194 -196l195 194l52 -52l-194 -195z" />
    <glyph glyph-name="Oslash" unicode="&#xd8;" horiz-adv-x="799" 
d="M38 341q0 149 103.5 256t258.5 107q127 0 222 -72l88 95l48 -45l-88 -95q91 -102 91 -246q0 -151 -104 -257t-257 -106q-133 0 -225 71l-89 -97l-49 44l90 98q-89 104 -89 247zM124 341q0 -108 60 -185l385 417q-73 57 -170 57q-117 0 -196 -82t-79 -207zM675 341
q0 107 -60 186l-384 -418q73 -57 168 -57q117 0 196.5 82.5t79.5 206.5z" />
    <glyph glyph-name="Ugrave" unicode="&#xd9;" horiz-adv-x="625" 
d="M313 -22q-104 0 -176.5 71.5t-72.5 222.5v410h83v-422q0 -93 44.5 -150.5t121.5 -57.5q85 0 125.5 56t40.5 152v422h82v-408q0 -154 -68.5 -225t-179.5 -71zM187 819l38 71l173 -100l-29 -54z" />
    <glyph glyph-name="Uacute" unicode="&#xda;" horiz-adv-x="625" 
d="M313 -22q-104 0 -176.5 71.5t-72.5 222.5v410h83v-422q0 -93 44.5 -150.5t121.5 -57.5q85 0 125.5 56t40.5 152v422h82v-408q0 -154 -68.5 -225t-179.5 -71zM401 890l38 -71l-182 -83l-29 54z" />
    <glyph glyph-name="Ucircumflex" unicode="&#xdb;" horiz-adv-x="625" 
d="M313 -22q-104 0 -176.5 71.5t-72.5 222.5v410h83v-422q0 -93 44.5 -150.5t121.5 -57.5q85 0 125.5 56t40.5 152v422h82v-408q0 -154 -68.5 -225t-179.5 -71zM313 885l140 -98l-27 -49l-113 58l-113 -58l-27 49z" />
    <glyph glyph-name="Udieresis" unicode="&#xdc;" horiz-adv-x="625" 
d="M313 -22q-104 0 -176.5 71.5t-72.5 222.5v410h83v-422q0 -93 44.5 -150.5t121.5 -57.5q85 0 125.5 56t40.5 152v422h82v-408q0 -154 -68.5 -225t-179.5 -71zM180 776v88h92v-88h-92zM354 776v88h92v-88h-92z" />
    <glyph glyph-name="Yacute" unicode="&#xdd;" horiz-adv-x="532" 
d="M231 0v278l-214 404h93l130 -250q24 -46 36 -79h2q7 16 21 43.5t17 34.5l124 251h86l-212 -403v-279h-83zM362 890l38 -71l-182 -83l-29 54z" />
    <glyph glyph-name="Thorn" unicode="&#xde;" horiz-adv-x="532" 
d="M74 0v682h83v-132h105q110 0 172.5 -49.5t62.5 -140.5q0 -98 -61 -150t-181 -52h-98v-158h-83zM412 358q0 56 -37 86t-106 30h-112v-241h109q146 0 146 125z" />
    <glyph glyph-name="germandbls" unicode="&#xdf;" horiz-adv-x="601" 
d="M465 569q0 -88 -80 -129q-59 -29 -59 -63q0 -23 17.5 -40t71.5 -41q79 -35 110.5 -72.5t31.5 -94.5q0 -65 -43.5 -105.5t-122.5 -40.5q-78 0 -119 40.5t-51 104.5h80q15 -77 95 -77q39 0 60.5 20t21.5 53t-21.5 56.5t-81.5 49.5q-72 31 -100 64t-28 80q0 70 70 108
q43 23 56 40.5t13 45.5q0 33 -24 62t-86 29q-128 0 -128 -155v-504h-79v506q0 110 55 164.5t152 54.5q88 0 138.5 -45.5t50.5 -110.5z" />
    <glyph glyph-name="agrave" unicode="&#xe0;" horiz-adv-x="607" 
d="M543 479v-479h-79v64h-2q-68 -81 -175 -81q-101 0 -173.5 71.5t-72.5 185.5q0 111 71.5 183t179.5 72q99 0 171 -85h1v69h79zM123 240q0 -75 46 -131t129 -56q70 0 121.5 52.5t51.5 131.5q0 84 -49.5 136.5t-121.5 52.5q-85 0 -131 -55.5t-46 -130.5zM171 695l58 55
l132 -150l-44 -42z" />
    <glyph glyph-name="aacute" unicode="&#xe1;" horiz-adv-x="607" 
d="M543 479v-479h-79v64h-2q-68 -81 -175 -81q-101 0 -173.5 71.5t-72.5 185.5q0 111 71.5 183t179.5 72q99 0 171 -85h1v69h79zM123 240q0 -75 46 -131t129 -56q70 0 121.5 52.5t51.5 131.5q0 84 -49.5 136.5t-121.5 52.5q-85 0 -131 -55.5t-46 -130.5zM223 600l132 150
l58 -55l-146 -137z" />
    <glyph glyph-name="acircumflex" unicode="&#xe2;" horiz-adv-x="607" 
d="M543 479v-479h-79v64h-2q-68 -81 -175 -81q-101 0 -173.5 71.5t-72.5 185.5q0 111 71.5 183t179.5 72q99 0 171 -85h1v69h79zM123 240q0 -75 46 -131t129 -56q70 0 121.5 52.5t51.5 131.5q0 84 -49.5 136.5t-121.5 52.5q-85 0 -131 -55.5t-46 -130.5zM292 730l140 -127
l-41 -45l-99 81l-99 -81l-41 45z" />
    <glyph glyph-name="atilde" unicode="&#xe3;" horiz-adv-x="607" 
d="M543 479v-479h-79v64h-2q-68 -81 -175 -81q-101 0 -173.5 71.5t-72.5 185.5q0 111 71.5 183t179.5 72q99 0 171 -85h1v69h79zM123 240q0 -75 46 -131t129 -56q70 0 121.5 52.5t51.5 131.5q0 84 -49.5 136.5t-121.5 52.5q-85 0 -131 -55.5t-46 -130.5zM202 593h-60
q6 116 93 116q37 0 76 -33q37 -30 60 -30q30 0 31 55h60q-5 -116 -95 -116q-43 0 -81 32q-38 31 -53 31q-28 0 -31 -55z" />
    <glyph glyph-name="adieresis" unicode="&#xe4;" horiz-adv-x="607" 
d="M543 479v-479h-79v64h-2q-68 -81 -175 -81q-101 0 -173.5 71.5t-72.5 185.5q0 111 71.5 183t179.5 72q99 0 171 -85h1v69h79zM123 240q0 -75 46 -131t129 -56q70 0 121.5 52.5t51.5 131.5q0 84 -49.5 136.5t-121.5 52.5q-85 0 -131 -55.5t-46 -130.5zM159 596v88h92v-88
h-92zM333 596v88h92v-88h-92z" />
    <glyph glyph-name="aring" unicode="&#xe5;" horiz-adv-x="607" 
d="M543 479v-479h-79v64h-2q-68 -81 -175 -81q-101 0 -173.5 71.5t-72.5 185.5q0 111 71.5 183t179.5 72q99 0 171 -85h1v69h79zM123 240q0 -75 46 -131t129 -56q70 0 121.5 52.5t51.5 131.5q0 84 -49.5 136.5t-121.5 52.5q-85 0 -131 -55.5t-46 -130.5zM225 653
q0 -28 20 -48t48 -20t47 20t19 48t-19 47t-47 19t-48 -19t-20 -47zM170 653q0 50 35.5 85.5t87.5 35.5q50 0 85.5 -35.5t35.5 -85.5q0 -51 -35.5 -87t-85.5 -36q-52 0 -87.5 36t-35.5 87z" />
    <glyph glyph-name="ae" unicode="&#xe6;" horiz-adv-x="842" 
d="M582 495q60 0 105 -23t70 -61t37 -80t12 -85q0 -13 -2 -23h-362q1 -75 42 -122.5t110 -47.5q71 0 107 58h91q-28 -59 -77.5 -93.5t-117.5 -34.5q-143 0 -199 116q-67 -116 -194 -116q-86 0 -125 42.5t-39 104.5q0 76 63.5 115.5t181.5 39.5h81v32q0 49 -30 79t-82 30
q-102 0 -112 -70h-83q4 57 54 98t138 41q125 0 164 -86q61 86 167 86zM582 426q-62 0 -97.5 -40.5t-41.5 -100.5h280q-6 62 -43 101.5t-98 39.5zM366 223h-81q-163 0 -163 -91q0 -41 25.5 -60t63.5 -19q71 0 110.5 51t44.5 119z" />
    <glyph glyph-name="ccedilla" unicode="&#xe7;" horiz-adv-x="543" 
d="M288 495q92 0 146.5 -43.5t69.5 -95.5h-88q-33 70 -128 70q-72 0 -121 -48.5t-49 -137.5q0 -81 49.5 -134t125.5 -53q92 0 130 79h88q-21 -59 -70.5 -101t-130.5 -47l-9 -23q36 -8 58 -33t22 -60q0 -46 -30 -74.5t-84 -28.5q-53 0 -98 15l20 56q26 -11 67 -11q57 0 57 39
q0 47 -95 47l31 76q-92 13 -152.5 81.5t-60.5 172.5q0 108 69.5 181t182.5 73z" />
    <glyph glyph-name="egrave" unicode="&#xe8;" horiz-adv-x="547" 
d="M279 495q62 0 110 -24t74.5 -62t39.5 -79.5t13 -83.5q0 -19 -2 -29h-391q0 -65 51 -114.5t119 -49.5q74 0 123 58h91q-28 -53 -81.5 -90.5t-130.5 -37.5q-113 0 -183.5 75t-70.5 188q0 103 66 176t172 73zM279 426q-65 0 -107 -42.5t-48 -100.5h309q-6 59 -48.5 101
t-105.5 42zM157 695l58 55l132 -150l-44 -42z" />
    <glyph glyph-name="eacute" unicode="&#xe9;" horiz-adv-x="547" 
d="M279 495q62 0 110 -24t74.5 -62t39.5 -79.5t13 -83.5q0 -19 -2 -29h-391q0 -65 51 -114.5t119 -49.5q74 0 123 58h91q-28 -53 -81.5 -90.5t-130.5 -37.5q-113 0 -183.5 75t-70.5 188q0 103 66 176t172 73zM279 426q-65 0 -107 -42.5t-48 -100.5h309q-6 59 -48.5 101
t-105.5 42zM209 600l132 150l58 -55l-146 -137z" />
    <glyph glyph-name="ecircumflex" unicode="&#xea;" horiz-adv-x="547" 
d="M279 495q62 0 110 -24t74.5 -62t39.5 -79.5t13 -83.5q0 -19 -2 -29h-391q0 -65 51 -114.5t119 -49.5q74 0 123 58h91q-28 -53 -81.5 -90.5t-130.5 -37.5q-113 0 -183.5 75t-70.5 188q0 103 66 176t172 73zM279 426q-65 0 -107 -42.5t-48 -100.5h309q-6 59 -48.5 101
t-105.5 42zM278 730l140 -127l-41 -45l-99 81l-99 -81l-41 45z" />
    <glyph glyph-name="edieresis" unicode="&#xeb;" horiz-adv-x="547" 
d="M279 495q62 0 110 -24t74.5 -62t39.5 -79.5t13 -83.5q0 -19 -2 -29h-391q0 -65 51 -114.5t119 -49.5q74 0 123 58h91q-28 -53 -81.5 -90.5t-130.5 -37.5q-113 0 -183.5 75t-70.5 188q0 103 66 176t172 73zM279 426q-65 0 -107 -42.5t-48 -100.5h309q-6 59 -48.5 101
t-105.5 42zM145 596v88h92v-88h-92zM319 596v88h92v-88h-92z" />
    <glyph glyph-name="igrave" unicode="&#xec;" horiz-adv-x="217" 
d="M74 0v479h79v-479h-79zM-8 695l58 55l132 -150l-44 -42z" />
    <glyph glyph-name="iacute" unicode="&#xed;" horiz-adv-x="217" 
d="M74 0v479h79v-479h-79zM44 600l132 150l58 -55l-146 -137z" />
    <glyph glyph-name="icircumflex" unicode="&#xee;" horiz-adv-x="217" 
d="M74 0v479h79v-479h-79zM113 730l140 -127l-41 -45l-99 81l-99 -81l-41 45z" />
    <glyph glyph-name="idieresis" unicode="&#xef;" horiz-adv-x="217" 
d="M74 0v479h79v-479h-79zM-20 596v88h92v-88h-92zM154 596v88h92v-88h-92z" />
    <glyph glyph-name="eth" unicode="&#xf0;" horiz-adv-x="584" 
d="M197 521l-37 54l93 61q-56 50 -105 84h106q26 -16 63 -47l82 54l36 -54l-67 -45q82 -73 131 -173t49 -210q0 -108 -73.5 -185t-182.5 -77t-182.5 74t-73.5 183q0 110 73.5 182.5t182.5 72.5q70 0 123 -34l2 2q-39 54 -115 128zM118 240q0 -79 51.5 -132t122.5 -53
q75 0 124.5 53t49.5 132q0 78 -48.5 131t-125.5 53q-76 0 -125 -52t-49 -132z" />
    <glyph glyph-name="ntilde" unicode="&#xf1;" horiz-adv-x="553" 
d="M74 0v479h79v-60h2q59 76 151 76q76 0 132.5 -52.5t56.5 -163.5v-279h-79v274q0 72 -32.5 111t-89.5 39q-66 0 -103.5 -43.5t-37.5 -125.5v-255h-79zM195 593h-60q6 116 93 116q37 0 76 -33q37 -30 60 -30q30 0 31 55h60q-5 -116 -95 -116q-43 0 -81 32q-38 31 -53 31
q-28 0 -31 -55z" />
    <glyph glyph-name="ograve" unicode="&#xf2;" horiz-adv-x="584" 
d="M41 240q0 110 73.5 182.5t182.5 72.5q111 0 183.5 -73t72.5 -182q0 -107 -73 -182t-183 -75q-109 0 -182.5 74t-73.5 183zM123 240q0 -79 51.5 -132t122.5 -53q75 0 124.5 53t49.5 132q0 78 -48.5 131t-125.5 53q-76 0 -125 -52t-49 -132zM182 695l58 55l132 -150
l-44 -42z" />
    <glyph glyph-name="oacute" unicode="&#xf3;" horiz-adv-x="584" 
d="M41 240q0 110 73.5 182.5t182.5 72.5q111 0 183.5 -73t72.5 -182q0 -107 -73 -182t-183 -75q-109 0 -182.5 74t-73.5 183zM123 240q0 -79 51.5 -132t122.5 -53q75 0 124.5 53t49.5 132q0 78 -48.5 131t-125.5 53q-76 0 -125 -52t-49 -132zM222 600l132 150l58 -55
l-146 -137z" />
    <glyph glyph-name="ocircumflex" unicode="&#xf4;" horiz-adv-x="584" 
d="M41 240q0 110 73.5 182.5t182.5 72.5q111 0 183.5 -73t72.5 -182q0 -107 -73 -182t-183 -75q-109 0 -182.5 74t-73.5 183zM123 240q0 -79 51.5 -132t122.5 -53q75 0 124.5 53t49.5 132q0 78 -48.5 131t-125.5 53q-76 0 -125 -52t-49 -132zM297 730l140 -127l-41 -45
l-99 81l-99 -81l-41 45z" />
    <glyph glyph-name="otilde" unicode="&#xf5;" horiz-adv-x="584" 
d="M41 240q0 110 73.5 182.5t182.5 72.5q111 0 183.5 -73t72.5 -182q0 -107 -73 -182t-183 -75q-109 0 -182.5 74t-73.5 183zM123 240q0 -79 51.5 -132t122.5 -53q75 0 124.5 53t49.5 132q0 78 -48.5 131t-125.5 53q-76 0 -125 -52t-49 -132zM196 593h-60q6 116 93 116
q37 0 76 -33q37 -30 60 -30q30 0 31 55h60q-5 -116 -95 -116q-43 0 -81 32q-38 31 -53 31q-28 0 -31 -55z" />
    <glyph glyph-name="odieresis" unicode="&#xf6;" horiz-adv-x="584" 
d="M41 240q0 110 73.5 182.5t182.5 72.5q111 0 183.5 -73t72.5 -182q0 -107 -73 -182t-183 -75q-109 0 -182.5 74t-73.5 183zM123 240q0 -79 51.5 -132t122.5 -53q75 0 124.5 53t49.5 132q0 78 -48.5 131t-125.5 53q-76 0 -125 -52t-49 -132zM164 596v88h92v-88h-92z
M338 596v88h92v-88h-92z" />
    <glyph glyph-name="divide" unicode="&#xf7;" horiz-adv-x="672" 
d="M593 227h-515v74h515v-74zM390 455q0 -24 -16 -39t-38 -15t-38 16t-16 37q0 23 15.5 39t38.5 16q24 0 39 -15.5t15 -38.5zM390 75q0 -24 -15.5 -40t-37.5 -16t-38.5 16.5t-16.5 38.5t15.5 38t38.5 16q24 0 39 -15.5t15 -37.5z" />
    <glyph glyph-name="oslash" unicode="&#xf8;" horiz-adv-x="584" 
d="M36 240q0 110 73.5 182.5t182.5 72.5q80 0 145 -42l62 70l47 -42l-61 -69q63 -71 63 -172q0 -107 -73 -182t-183 -75q-80 0 -145 43l-60 -69l-49 41l61 70q-63 73 -63 172zM118 240q0 -63 35 -112l235 268q-42 28 -96 28q-76 0 -125 -52t-49 -132zM466 240q0 62 -33 111
l-235 -267q41 -29 94 -29q75 0 124.5 53t49.5 132z" />
    <glyph glyph-name="ugrave" unicode="&#xf9;" horiz-adv-x="540" 
d="M476 479v-479h-79v59h-2q-56 -76 -145 -76q-74 0 -128 52.5t-54 163.5v280h79v-274q0 -72 31.5 -111t84.5 -39q63 0 98.5 43t35.5 125v256h79zM154 695l58 55l132 -150l-44 -42z" />
    <glyph glyph-name="uacute" unicode="&#xfa;" horiz-adv-x="540" 
d="M476 479v-479h-79v59h-2q-56 -76 -145 -76q-74 0 -128 52.5t-54 163.5v280h79v-274q0 -72 31.5 -111t84.5 -39q63 0 98.5 43t35.5 125v256h79zM206 600l132 150l58 -55l-146 -137z" />
    <glyph glyph-name="ucircumflex" unicode="&#xfb;" horiz-adv-x="540" 
d="M476 479v-479h-79v59h-2q-56 -76 -145 -76q-74 0 -128 52.5t-54 163.5v280h79v-274q0 -72 31.5 -111t84.5 -39q63 0 98.5 43t35.5 125v256h79zM275 730l140 -127l-41 -45l-99 81l-99 -81l-41 45z" />
    <glyph glyph-name="udieresis" unicode="&#xfc;" horiz-adv-x="540" 
d="M476 479v-479h-79v59h-2q-56 -76 -145 -76q-74 0 -128 52.5t-54 163.5v280h79v-274q0 -72 31.5 -111t84.5 -39q63 0 98.5 43t35.5 125v256h79zM142 596v88h92v-88h-92zM316 596v88h92v-88h-92z" />
    <glyph glyph-name="yacute" unicode="&#xfd;" horiz-adv-x="432" 
d="M435 479l-264 -714h-76l87 235l-176 479h81l101 -279q25 -63 32 -101h2q27 84 33 101l100 279h80zM152 600l132 150l58 -55l-146 -137z" />
    <glyph glyph-name="thorn" unicode="&#xfe;" horiz-adv-x="607" 
d="M69 -235v955h79v-309h2q71 84 180 84q110 0 175.5 -76t65.5 -179q0 -109 -69.5 -183t-174.5 -74q-109 0 -177 81h-2v-299h-79zM489 240q0 76 -46.5 131t-129.5 55q-73 0 -122.5 -52.5t-49.5 -136.5q0 -80 51.5 -132t122.5 -52q82 0 128 56t46 131z" />
    <glyph glyph-name="ydieresis" unicode="&#xff;" horiz-adv-x="432" 
d="M435 479l-264 -714h-76l87 235l-176 479h81l101 -279q25 -63 32 -101h2q27 84 33 101l100 279h80zM88 596v88h92v-88h-92zM262 596v88h92v-88h-92z" />
    <glyph glyph-name="dotlessi" unicode="&#x131;" horiz-adv-x="217" 
d="M69 0v479h79v-479h-79z" />
    <glyph glyph-name="Lslash" unicode="&#x141;" horiz-adv-x="473" 
d="M5 185v85l69 50v362h83v-306l121 89v-85l-121 -89v-215h302v-76h-385v235z" />
    <glyph glyph-name="lslash" unicode="&#x142;" horiz-adv-x="241" 
d="M5 245v84l76 59v332h79v-276l76 59v-84l-76 -59v-360h-79v304z" />
    <glyph glyph-name="OE" unicode="&#x152;" horiz-adv-x="1108" 
d="M1033 682v-76h-291v-215h280v-76h-280v-239h302v-76h-380v117q-101 -139 -264 -139q-89 0 -160.5 32.5t-114.5 86t-65 116t-22 128.5q0 149 103.5 256t258.5 107q166 0 264 -136v114h369zM124 341q0 -124 79 -206.5t196 -82.5q115 0 192.5 82.5t77.5 206.5t-75.5 206.5
t-194.5 82.5q-117 0 -196 -82t-79 -207z" />
    <glyph glyph-name="oe" unicode="&#x153;" horiz-adv-x="933" 
d="M36 240q0 110 71 182.5t175 72.5q135 0 201 -115q27 53 75 84t112 31q60 0 105.5 -24t71 -62t38 -79.5t12.5 -83.5q0 -19 -2 -29h-371q0 -67 44 -115.5t109 -48.5q70 0 115 58h91q-28 -53 -78.5 -90.5t-124.5 -37.5q-139 0 -197 117q-31 -55 -83 -86t-118 -31
q-104 0 -175 74t-71 183zM118 240q0 -79 48.5 -132t115.5 -53q71 0 117.5 53t46.5 132q0 78 -45.5 131t-118.5 53q-72 0 -118 -52t-46 -132zM670 426q-61 0 -100 -42.5t-45 -100.5h289q-5 59 -45 101t-99 42z" />
    <glyph glyph-name="Scaron" unicode="&#x160;" horiz-adv-x="545" 
d="M476 542h-89q-8 40 -37.5 65t-75.5 25q-52 0 -82.5 -29t-30.5 -74q0 -46 32.5 -74t96.5 -47q111 -33 157 -87t46 -137q0 -82 -57 -144t-157 -62q-88 0 -149 46.5t-82 139.5h91q30 -114 141 -114q61 0 95 39t34 90q0 57 -35.5 92.5t-110.5 58.5q-95 29 -140.5 76.5
t-45.5 122.5q0 74 55.5 124.5t141.5 50.5q82 0 136.5 -46t65.5 -116zM277 738l-140 98l27 49l113 -58l113 58l27 -49z" />
    <glyph glyph-name="scaron" unicode="&#x161;" horiz-adv-x="425" 
d="M379 364h-80q-6 28 -27.5 46t-49.5 18q-35 0 -55.5 -18.5t-20.5 -45.5q0 -25 20.5 -44.5t80.5 -38.5q139 -45 139 -153q0 -66 -44 -105.5t-118 -39.5q-76 0 -119 39.5t-55 105.5h80q7 -34 31 -55.5t66 -21.5q38 0 59 20t21 51q0 33 -22 54.5t-85 42.5q-68 22 -100 57
t-32 89q0 55 39.5 92.5t110.5 37.5q131 0 161 -131zM217 558l-140 127l41 45l99 -81l99 81l41 -45z" />
    <glyph glyph-name="Ydieresis" unicode="&#x178;" horiz-adv-x="532" 
d="M231 0v278l-214 404h93l130 -250q24 -46 36 -79h2q7 16 21 43.5t17 34.5l124 251h86l-212 -403v-279h-83zM141 776v88h92v-88h-92zM315 776v88h92v-88h-92z" />
    <glyph glyph-name="Zcaron" unicode="&#x17d;" horiz-adv-x="601" 
d="M63 606v76h485v-72l-403 -534h419v-76h-518v71l403 535h-386zM302 738l-140 98l27 49l113 -58l113 58l27 -49z" />
    <glyph glyph-name="zcaron" unicode="&#x17e;" horiz-adv-x="482" 
d="M58 413v66h376v-62l-288 -350h300v-67h-400v63l289 350h-277zM236 558l-140 127l41 45l99 -81l99 81l41 -45z" />
    <glyph glyph-name="longs" unicode="&#x17f;" horiz-adv-x="239" 
d="M74 0v565q0 77 38.5 118.5t112.5 41.5q30 0 59 -8v-66q-24 8 -54 8q-38 0 -57 -22.5t-19 -62.5v-574h-80z" />
    <glyph glyph-name="florin" unicode="&#x192;" horiz-adv-x="562" 
d="M143 -93l81 509h-85v66h95l10 64q14 83 51 120.5t100 37.5q25 0 55 -6v-64q-19 4 -46 4q-66 0 -79 -83l-12 -73h92v-66h-102l-82 -515q-14 -87 -52 -122.5t-99 -35.5q-35 0 -56 6v65q23 -5 46 -5q36 0 55.5 23t27.5 75z" />
    <glyph glyph-name="circumflex" unicode="&#x2c6;" horiz-adv-x="328" 
d="M164 730l140 -127l-41 -45l-99 81l-99 -81l-41 45z" />
    <glyph glyph-name="caron" unicode="&#x2c7;" horiz-adv-x="328" 
d="M164 558l-140 127l41 45l99 -81l99 81l41 -45z" />
    <glyph glyph-name="uni02C9" unicode="&#x2c9;" horiz-adv-x="328" 
d="M298 604h-268v65h268v-65z" />
    <glyph glyph-name="breve" unicode="&#x2d8;" horiz-adv-x="328" 
d="M254 714h66q-3 -63 -47.5 -105t-108.5 -42q-65 0 -109 42t-47 105h66q2 -37 27 -58.5t63 -21.5t63 22t27 58z" />
    <glyph glyph-name="dotaccent" unicode="&#x2d9;" horiz-adv-x="328" 
d="M117 596v89h94v-89h-94z" />
    <glyph glyph-name="ring" unicode="&#x2da;" horiz-adv-x="328" 
d="M97 653q0 -28 20 -48t48 -20t47 20t19 48t-19 47t-47 19t-48 -19t-20 -47zM42 653q0 50 35.5 85.5t87.5 35.5q50 0 85.5 -35.5t35.5 -85.5q0 -51 -35.5 -87t-85.5 -36q-52 0 -87.5 36t-35.5 87z" />
    <glyph glyph-name="ogonek" unicode="&#x2db;" horiz-adv-x="328" 
d="M244 -143v-65q-28 -7 -51 -7q-59 0 -87 29.5t-28 75.5q0 30 18.5 60.5t51.5 49.5h60q-56 -46 -56 -98q0 -49 50 -49q21 0 42 4z" />
    <glyph glyph-name="tilde" unicode="&#x2dc;" horiz-adv-x="328" 
d="M64 593h-60q6 116 93 116q37 0 76 -33q37 -30 60 -30q30 0 31 55h60q-5 -116 -95 -116q-43 0 -81 32q-38 31 -53 31q-28 0 -31 -55z" />
    <glyph glyph-name="hungarumlaut" unicode="&#x2dd;" horiz-adv-x="328" 
d="M132 754l66 -45l-114 -151l-50 34zM292 754l66 -45l-114 -151l-50 34z" />
    <glyph glyph-name="uni0394" unicode="&#x394;" horiz-adv-x="636" 
d="M7 0l278 682h74l270 -682h-622zM268 449l-144 -375h386l-142 376q-27 71 -47 138h-4q-18 -59 -49 -139z" />
    <glyph glyph-name="uni03A9" unicode="&#x3a9;" horiz-adv-x="753" 
d="M713 373q0 -89 -48.5 -168.5t-141.5 -116.5v-14h189v-74h-263v125q80 23 129 90t49 158q0 110 -70.5 183.5t-180.5 73.5q-106 0 -178 -73.5t-72 -183.5q0 -91 49 -158t129 -90v-125h-263v74h189v14q-93 37 -141.5 116.5t-48.5 168.5q0 136 96.5 233.5t240.5 97.5
q151 0 243.5 -97.5t92.5 -233.5z" />
    <glyph glyph-name="uni03BC" unicode="&#x3bc;" horiz-adv-x="550" 
d="M63 -213v692h79v-274q0 -71 30 -110.5t87 -39.5q63 0 97.5 44t34.5 124v256h80v-369q0 -28 7 -39t29 -11q9 0 21 3v-70q-17 -5 -38 -5q-44 0 -65 18.5t-27 61.5h-2q-57 -85 -152 -85q-64 0 -110 36l-3 -2q11 -44 11 -122v-108h-79z" />
    <glyph glyph-name="pi" unicode="&#x3c0;" horiz-adv-x="635" 
d="M569 72v-70q-30 -8 -57 -8q-64 0 -89.5 34t-25.5 108v277h-168v-278q0 -77 -17 -135h-80q18 57 18 141v272q-79 0 -125 -27v67q45 26 145 26h430v-66h-125v-267q0 -46 10.5 -63t45.5 -17q23 0 38 6z" />
    <glyph glyph-name="endash" unicode="&#x2013;" horiz-adv-x="560" 
d="M482 224h-404v80h404v-80z" />
    <glyph glyph-name="emdash" unicode="&#x2014;" horiz-adv-x="1110" 
d="M1032 224h-954v80h954v-80z" />
    <glyph glyph-name="afii00208" unicode="&#x2015;" horiz-adv-x="800" 
d="M700 229h-600v70h600v-70z" />
    <glyph glyph-name="underscoredbl" unicode="&#x2017;" horiz-adv-x="550" 
d="M0 -235v55h550v-55h-550zM0 -135v55h550v-55h-550z" />
    <glyph glyph-name="quoteleft" unicode="&#x2018;" horiz-adv-x="229" 
d="M165 598v-99h-100v49q0 97 48 172h50q-31 -47 -34 -122h36z" />
    <glyph glyph-name="quoteright" unicode="&#x2019;" horiz-adv-x="229" 
d="M64 621v99h100v-49q0 -97 -48 -172h-50q31 47 34 122h-36z" />
    <glyph glyph-name="quotesinglbase" unicode="&#x201a;" horiz-adv-x="229" 
d="M64 0v99h100v-49q0 -97 -48 -172h-50q31 47 34 122h-36z" />
    <glyph glyph-name="quotereversed" unicode="&#x201b;" horiz-adv-x="229" 
d="M165 720v-99h-36q3 -75 34 -122h-50q-48 75 -48 172v49h100z" />
    <glyph glyph-name="quotedblleft" unicode="&#x201c;" horiz-adv-x="385" 
d="M165 598v-99h-100v49q0 97 48 172h50q-31 -47 -34 -122h36zM321 598v-99h-100v49q0 97 48 172h50q-31 -47 -34 -122h36z" />
    <glyph glyph-name="quotedblright" unicode="&#x201d;" horiz-adv-x="385" 
d="M220 621v99h100v-49q0 -97 -48 -172h-50q31 47 34 122h-36zM64 621v99h100v-49q0 -97 -48 -172h-50q31 47 34 122h-36z" />
    <glyph glyph-name="quotedblbase" unicode="&#x201e;" horiz-adv-x="385" 
d="M220 0v99h100v-49q0 -97 -48 -172h-50q31 47 34 122h-36zM64 0v99h100v-49q0 -97 -48 -172h-50q31 47 34 122h-36z" />
    <glyph glyph-name="dagger" unicode="&#x2020;" horiz-adv-x="430" 
d="M385 450l-142 11l11 -89l-11 -372h-57l-11 372l11 89l-141 -11v79l141 -11l-11 164h79l-11 -164l142 11v-79z" />
    <glyph glyph-name="daggerdbl" unicode="&#x2021;" horiz-adv-x="430" 
d="M254 169l-11 -169h-57l-11 169l11 78l-141 -11v80l141 -11l-11 78l11 78l-141 -11v79l141 -11l-11 164h79l-11 -164l142 11v-79l-142 11l11 -78l-11 -78l142 11v-80l-142 11z" />
    <glyph glyph-name="bullet" unicode="&#x2022;" horiz-adv-x="388" 
d="M68 304q0 52 36.5 89t88.5 37t89.5 -37t37.5 -89t-37.5 -89t-89.5 -37t-88.5 37t-36.5 89z" />
    <glyph glyph-name="ellipsis" unicode="&#x2026;" horiz-adv-x="1010" 
d="M117 0v110h110v-110h-110zM450 0v110h110v-110h-110zM783 0v110h110v-110h-110z" />
    <glyph glyph-name="perthousand" unicode="&#x2030;" horiz-adv-x="1083" 
d="M561 682h82l-448 -682h-82zM48 519q0 93 44.5 138.5t105.5 45.5q58 0 99.5 -43.5t41.5 -138.5q0 -54 -14 -93.5t-37.5 -59t-46 -28t-46.5 -8.5q-60 0 -103.5 44t-43.5 143zM269 519q0 119 -75 119q-34 0 -55 -28.5t-21 -89.5q0 -123 77 -123q32 0 53 29.5t21 92.5z
M414 165q0 92 44 137.5t105 45.5q59 0 100.5 -43t41.5 -138q0 -55 -14 -94t-37.5 -58.5t-46.5 -28t-47 -8.5q-60 0 -103 44t-43 143zM635 165q0 118 -76 118q-33 0 -54 -28.5t-21 -88.5q0 -123 76 -123q33 0 54 29t21 93zM744 165q0 92 44 137.5t105 45.5q59 0 100.5 -43
t41.5 -138q0 -55 -14 -94t-37.5 -58.5t-46.5 -28t-47 -8.5q-60 0 -103 44t-43 143zM965 165q0 118 -76 118q-33 0 -54 -28.5t-21 -88.5q0 -123 76 -123q33 0 54 29t21 93z" />
    <glyph glyph-name="minute" unicode="&#x2032;" horiz-adv-x="230" 
d="M117 698l68 -23l-87 -248l-53 17z" />
    <glyph glyph-name="second" unicode="&#x2033;" horiz-adv-x="420" 
d="M117 698l68 -23l-87 -248l-53 17zM307 698l68 -23l-87 -248l-53 17z" />
    <glyph glyph-name="guilsinglleft" unicode="&#x2039;" horiz-adv-x="294" 
d="M60 248l125 203l54 -29l-90 -174l90 -174l-54 -30z" />
    <glyph glyph-name="guilsinglright" unicode="&#x203a;" horiz-adv-x="294" 
d="M234 247l-125 -203l-54 29l90 174l-90 174l54 30z" />
    <glyph glyph-name="exclamdbl" unicode="&#x203c;" horiz-adv-x="458" 
d="M71 0v88h88v-88h-88zM71 682h88l-8 -493h-72zM300 0v88h88v-88h-88zM300 682h88l-8 -493h-72z" />
    <glyph glyph-name="uni203E" unicode="&#x203e;" horiz-adv-x="550" 
d="M0 762v74h550v-74h-550z" />
    <glyph glyph-name="fraction" unicode="&#x2044;" horiz-adv-x="190" 
d="M283 682h77l-453 -682h-77z" />
    <glyph glyph-name="zero.superior" unicode="&#x2070;" 
d="M30 647q0 115 50.5 170t122.5 55q68 0 117 -53.5t49 -172.5q0 -68 -16.5 -117t-44 -73.5t-54.5 -35t-55 -10.5q-70 0 -119.5 55.5t-49.5 181.5zM293 644q0 166 -94 166q-40 0 -66.5 -38.5t-26.5 -122.5q0 -176 94 -176q40 0 66.5 41t26.5 130z" />
    <glyph glyph-name="four.superior" unicode="&#x2074;" 
d="M368 510h-65v-85h-73v85h-203v56l209 293h67v-290h65v-59zM198 707l-99 -138h131v140q0 11 0.5 19t1.5 16t1 14h-3q-10 -21 -32 -51z" />
    <glyph glyph-name="five.superior" unicode="&#x2075;" 
d="M153 796l-10 -92q20 5 47 5q72 0 114.5 -40t42.5 -107q0 -61 -41.5 -106t-113.5 -45q-70 0 -108.5 35.5t-42.5 90.5h74q2 -28 22.5 -45.5t56.5 -17.5q33 0 54 23t21 61q0 90 -99 90q-47 0 -101 -14l22 225h223v-63h-161z" />
    <glyph glyph-name="six.superior" unicode="&#x2076;" 
d="M30 568q0 74 59 146l123 145h78l-116 -139q14 6 44 6q66 -1 108 -46t42 -112q0 -66 -47.5 -111.5t-122.5 -45.5t-121.5 44.5t-46.5 112.5zM103 568q0 -42 27.5 -69t68.5 -27q42 0 69 27t27 69t-27 70.5t-69 28.5q-43 0 -69.5 -27.5t-26.5 -71.5z" />
    <glyph glyph-name="seven.superior" unicode="&#x2077;" 
d="M347 859v-56l-184 -378h-81l187 371h-211v63h289z" />
    <glyph glyph-name="eight.superior" unicode="&#x2078;" 
d="M125 750q0 -32 21 -51t53 -19q33 0 54 19.5t21 50.5t-21 49t-54 18t-53.5 -17.5t-20.5 -49.5zM115 549q0 -38 23 -60t62 -22q38 0 61.5 22t23.5 60q0 37 -23.5 59.5t-61.5 22.5q-37 0 -61 -22t-24 -60zM354 545q0 -58 -40.5 -96t-113.5 -38q-74 0 -115 37t-41 95
q0 85 80 115v1q-67 26 -67 96q0 51 39.5 84t103.5 33q63 0 102 -32t39 -81q0 -35 -18 -61t-50 -37v-2q81 -29 81 -114z" />
    <glyph glyph-name="nine.superior" unicode="&#x2079;" 
d="M369 715q0 -70 -60 -145l-123 -145h-78l116 139q-17 -7 -43 -7q-67 1 -109 46t-42 112q0 66 48 111.5t122 45.5q75 0 122 -43.5t47 -113.5zM296 716q0 43 -27.5 69.5t-68.5 26.5q-42 0 -69 -26.5t-27 -69.5t27 -71t69 -28q43 0 69.5 27t26.5 72z" />
    <glyph glyph-name="nsuperior" unicode="&#x207f;" horiz-adv-x="435" 
d="M60 328v354h70v-44h1q41 56 107 56q57 0 99.5 -39t42.5 -121v-206h-70v195q0 51 -21.5 79t-59.5 28q-47 0 -73 -31t-26 -89v-182h-70z" />
    <glyph glyph-name="zero.inferior" unicode="&#x2080;" 
d="M30 47q0 115 50.5 170t122.5 55q68 0 117 -53.5t49 -172.5q0 -68 -16.5 -117t-44 -73.5t-54.5 -35t-55 -10.5q-70 0 -119.5 55.5t-49.5 181.5zM293 44q0 166 -94 166q-40 0 -66.5 -38.5t-26.5 -122.5q0 -176 94 -176q40 0 66.5 41t26.5 130z" />
    <glyph glyph-name="one.inferior" unicode="&#x2081;" 
d="M170 -175v372h-67v62h140v-434h-73z" />
    <glyph glyph-name="two.inferior" unicode="&#x2082;" 
d="M59 -175v52l143 152q24 27 35.5 40.5t22 35t10.5 41.5q0 29 -18.5 46.5t-50.5 17.5q-66 0 -71 -74h-73q3 60 41 98t106 38q65 0 104 -35t39 -88q0 -40 -21.5 -74t-73.5 -88l-93 -98h194v-64h-294z" />
    <glyph glyph-name="three.inferior" unicode="&#x2083;" 
d="M125 150h-72q3 53 41 87.5t103 34.5q66 0 103.5 -31t37.5 -81q0 -36 -22 -61.5t-56 -34.5v-2q42 -9 67.5 -39t25.5 -75q0 -57 -41 -97t-116 -40q-71 0 -110.5 35.5t-45.5 97.5h73q11 -73 84 -73q38 0 60 23t22 59q0 33 -24 55t-71 22h-29v57h25q38 0 60.5 17.5t22.5 46.5
q0 28 -17.5 45t-50.5 17t-50 -18.5t-20 -44.5z" />
    <glyph glyph-name="four.inferior" unicode="&#x2084;" 
d="M368 -90h-65v-85h-73v85h-203v56l209 293h67v-290h65v-59zM198 106l-98 -137h130v139q0 11 0.5 19t1.5 16t1 14h-3q-10 -21 -32 -51z" />
    <glyph glyph-name="five.inferior" unicode="&#x2085;" 
d="M153 196l-10 -92q20 5 47 5q72 0 114.5 -40t42.5 -107q0 -61 -41.5 -106t-113.5 -45q-70 0 -108.5 35.5t-42.5 90.5h74q2 -28 22.5 -45.5t56.5 -17.5q33 0 54 23t21 61q0 90 -99 90q-47 0 -101 -14l22 225h223v-63h-161z" />
    <glyph glyph-name="six.inferior" unicode="&#x2086;" 
d="M30 -32q0 74 59 146l123 145h78l-116 -139q14 6 44 6q66 -1 108 -46t42 -112q0 -66 -47.5 -111.5t-122.5 -45.5t-121.5 44.5t-46.5 112.5zM103 -32q0 -42 27.5 -69t68.5 -27q42 0 69 27t27 69t-27 70.5t-69 28.5q-43 0 -69.5 -27.5t-26.5 -71.5z" />
    <glyph glyph-name="seven.inferior" unicode="&#x2087;" 
d="M347 259v-56l-184 -378h-81l187 371h-211v63h289z" />
    <glyph glyph-name="eight.inferior" unicode="&#x2088;" 
d="M125 150q0 -32 21 -51t53 -19q33 0 54 19.5t21 50.5t-21 49t-54 18t-53.5 -17.5t-20.5 -49.5zM115 -51q0 -38 23 -60t62 -22q38 0 61.5 22t23.5 60q0 37 -23.5 59.5t-61.5 22.5q-37 0 -61 -22t-24 -60zM354 -55q0 -58 -40.5 -96t-113.5 -38q-74 0 -115 37t-41 95
q0 85 80 115v1q-67 26 -67 96q0 51 39.5 84t103.5 33q63 0 102 -32t39 -81q0 -35 -18 -61t-50 -37v-2q81 -29 81 -114z" />
    <glyph glyph-name="nine.inferior" unicode="&#x2089;" 
d="M369 115q0 -70 -60 -145l-123 -145h-78l116 139q-17 -7 -43 -7q-67 1 -109 46t-42 112q0 66 48 111.5t122 45.5q75 0 122 -43.5t47 -113.5zM296 116q0 43 -27.5 69.5t-68.5 26.5q-42 0 -69 -26.5t-27 -69.5t27 -71t69 -28q43 0 69.5 27t26.5 72z" />
    <glyph glyph-name="franc" unicode="&#x20a3;" horiz-adv-x="562" 
d="M338 128h-142v-128h-82v128h-84v71h84v483h374v-76h-292v-216h281v-76h-281v-115h142v-71z" />
    <glyph glyph-name="lira" unicode="&#x20a4;" horiz-adv-x="562" 
d="M363 253h-139q1 -9 1 -26q0 -79 -51 -121q34 0 117 -27q78 -26 109 -26q57 0 59 105h78q-2 -78 -32.5 -129t-96.5 -51q-51 0 -144 31q-76 24 -104 24q-53 0 -107 -31v72q45 19 71 58.5t26 80.5q0 14 -2 40h-113v67h101l-13 60h-88v67h75q-4 40 -4 70q0 80 51 134t145 54
q89 0 142.5 -54t57.5 -139h-83q-1 54 -34.5 87.5t-80.5 33.5q-54 0 -84.5 -34.5t-30.5 -89.5q0 -32 3 -62h171v-67h-160l12 -60h148v-67z" />
    <glyph glyph-name="peseta" unicode="&#x20a7;" horiz-adv-x="1205" 
d="M74 0v682h178q112 0 179.5 -51t70.5 -152h73v153h79v-153h128v-66h-128v-253q0 -56 17.5 -77.5t57.5 -21.5q29 0 58 8v-65q-30 -10 -74 -10q-80 0 -109 45t-29 124v250h-80q-33 -153 -250 -153h-88v-260h-83zM1154 364h-80q-6 28 -27.5 46t-49.5 18q-35 0 -55.5 -18.5
t-20.5 -45.5q0 -25 20.5 -44.5t80.5 -38.5q139 -45 139 -153q0 -66 -44 -105.5t-118 -39.5q-76 0 -119 39.5t-55 105.5h80q17 -77 97 -77q38 0 59 20t21 51q0 33 -22 54.5t-85 42.5q-68 22 -100 57t-32 89q0 55 39.5 92.5t110.5 37.5q131 0 161 -131zM417 470q0 63 -39 99.5
t-119 36.5h-102v-271h99q161 0 161 135z" />
    <glyph glyph-name="Euro" unicode="&#x20ac;" horiz-adv-x="562" 
d="M543 78v-77q-65 -23 -135 -23q-125 0 -200 70t-100 184h-87l20 66h55q-1 13 -1 43q0 8 3 59h-66l20 67h59q30 110 108 173.5t189 63.5q63 0 122 -22l-19 -70q-47 19 -106 19q-67 0 -123.5 -41.5t-82.5 -122.5h274l-20 -67h-269q-3 -26 -3 -58q0 -31 1 -44h247l-20 -66
h-213q23 -83 79.5 -131.5t139.5 -48.5q62 0 128 26z" />
    <glyph glyph-name="afii61248" unicode="&#x2105;" horiz-adv-x="946" 
d="M656 682h77l-453 -682h-77zM233 702q78 0 123.5 -41.5t58.5 -92.5h-72q-11 31 -41 50.5t-69 19.5q-49 0 -82 -31.5t-33 -88.5q0 -52 32.5 -86.5t82.5 -34.5q41 0 70.5 23t41.5 56h72q-18 -61 -63.5 -102.5t-120.5 -41.5q-81 0 -133 52t-52 134q0 78 51 131t134 53z
M518 166q0 82 54 133t136 51q84 0 137 -53t53 -131q0 -80 -52.5 -133t-137.5 -53q-83 0 -136.5 52t-53.5 134zM588 166q0 -52 33.5 -86.5t86.5 -34.5t86.5 34t33.5 87q0 52 -33.5 86t-86.5 34q-52 0 -86 -31.5t-34 -88.5z" />
    <glyph glyph-name="afii61289" unicode="&#x2113;" horiz-adv-x="562" 
d="M418 98l37 -42q-67 -70 -138 -70q-60 0 -91.5 44t-31.5 110v85l-57 -62l-37 36l94 103v223q0 88 34 133.5t92 45.5q51 0 75.5 -33.5t24.5 -74.5q0 -117 -113 -263q-10 -11 -34 -41v-151q0 -90 63 -90q37 0 82 47zM362 586q0 54 -37 54q-52 0 -52 -109v-156q14 16 20 26
q69 101 69 185z" />
    <glyph glyph-name="trademark" unicode="&#x2122;" horiz-adv-x="582" 
d="M474 682l17 -212h-51l-6 117q-1 22 -1 49h-3q-1 -3 -4 -19.5t-7 -29.5l-38 -117h-44l-34 110q-9 30 -14 56h-2q0 -29 -1 -52l-7 -114h-51l19 212h68l35 -106q9 -26 10 -35h1q9 30 11 36l34 105h68zM67 636v46h158v-46h-55v-166h-50v166h-53z" />
    <glyph glyph-name="Omega" unicode="&#x2126;" horiz-adv-x="753" 
d="M713 373q0 -89 -48.5 -168.5t-141.5 -116.5v-14h189v-74h-263v125q80 23 129 90t49 158q0 110 -70.5 183.5t-180.5 73.5q-106 0 -178 -73.5t-72 -183.5q0 -91 49 -158t129 -90v-125h-263v74h189v14q-93 37 -141.5 116.5t-48.5 168.5q0 136 96.5 233.5t240.5 97.5
q151 0 243.5 -97.5t92.5 -233.5z" />
    <glyph glyph-name="estimated" unicode="&#x212e;" horiz-adv-x="670" 
d="M631 298h-460v-205q69 -67 163 -67q138 0 221 136q5 -3 37 -23q-50 -75 -109.5 -113t-148.5 -38q-130 0 -210 89.5t-80 220.5q0 133 79.5 222t212.5 89q134 0 212.5 -88.5t82.5 -222.5zM500 336v167q-70 68 -165 68q-98 0 -164 -66v-169h329z" />
    <glyph glyph-name="onethird" unicode="&#x2153;" horiz-adv-x="956" 
d="M170 250v372h-67v62h140v-434h-73zM651 682h77l-453 -682h-77zM683 325h-72q3 53 41 87.5t103 34.5q66 0 103.5 -31t37.5 -81q0 -36 -22 -61.5t-56 -34.5v-2q42 -9 67.5 -39t25.5 -75q0 -57 -41 -97t-116 -40q-71 0 -110.5 35.5t-45.5 97.5h73q11 -73 84 -73q38 0 60 23
t22 59q0 33 -24 55t-71 22h-29v57h25q38 0 60.5 17.5t22.5 46.5q0 28 -17.5 45t-50.5 17t-50 -18.5t-20 -44.5z" />
    <glyph glyph-name="twothirds" unicode="&#x2154;" horiz-adv-x="986" 
d="M59 250v52l143 152q24 27 35.5 40.5t22 35t10.5 41.5q0 29 -18.5 46.5t-50.5 17.5q-66 0 -71 -74h-73q3 60 41 98t106 38q65 0 104 -35t39 -88q0 -40 -21.5 -74t-73.5 -88l-93 -98h194v-64h-294zM681 682h77l-453 -682h-77zM713 325h-72q3 53 41 87.5t103 34.5
q66 0 103.5 -31t37.5 -81q0 -36 -22 -61.5t-56 -34.5v-2q42 -9 67.5 -39t25.5 -75q0 -57 -41 -97t-116 -40q-71 0 -110.5 35.5t-45.5 97.5h73q11 -73 84 -73q38 0 60 23t22 59q0 33 -24 55t-71 22h-29v57h25q38 0 60.5 17.5t22.5 46.5q0 28 -17.5 45t-50.5 17t-50 -18.5
t-20 -44.5z" />
    <glyph glyph-name="oneeighth" unicode="&#x215b;" horiz-adv-x="956" 
d="M170 250v372h-67v62h140v-434h-73zM651 682h77l-453 -682h-77zM683 325q0 -32 21 -51t53 -19q33 0 54 19.5t21 50.5t-21 49t-54 18t-53.5 -17.5t-20.5 -49.5zM673 124q0 -38 23 -60t62 -22q38 0 61.5 22t23.5 60q0 37 -23.5 59.5t-61.5 22.5q-37 0 -61 -22t-24 -60z
M912 120q0 -58 -40.5 -96t-113.5 -38q-74 0 -115 37t-41 95q0 85 80 115v1q-67 26 -67 96q0 51 39.5 84t103.5 33q63 0 102 -32t39 -81q0 -35 -18 -61t-50 -37v-2q81 -28 81 -114z" />
    <glyph glyph-name="threeeighths" unicode="&#x215c;" horiz-adv-x="986" 
d="M125 575h-72q3 53 41 87.5t103 34.5q66 0 103.5 -31t37.5 -81q0 -36 -22 -61.5t-56 -34.5v-2q42 -9 67.5 -39t25.5 -75q0 -57 -41 -97t-116 -40q-71 0 -110.5 35.5t-45.5 97.5h73q11 -73 84 -73q38 0 60 23t22 59q0 33 -24 55t-71 22h-29v57h25q38 0 60.5 17.5t22.5 46.5
q0 28 -17.5 45t-50.5 17t-50 -18.5t-20 -44.5zM681 682h77l-453 -682h-77zM713 325q0 -32 21 -51t53 -19q33 0 54 19.5t21 50.5t-21 49t-54 18t-53.5 -17.5t-20.5 -49.5zM703 124q0 -38 23 -60t62 -22q38 0 61.5 22t23.5 60q0 37 -23.5 59.5t-61.5 22.5q-37 0 -61 -22
t-24 -60zM942 120q0 -58 -40.5 -96t-113.5 -38q-74 0 -115 37t-41 95q0 85 80 115v1q-67 26 -67 96q0 51 39.5 84t103.5 33q63 0 102 -32t39 -81q0 -35 -18 -61t-50 -37v-2q81 -28 81 -114z" />
    <glyph glyph-name="fiveeighths" unicode="&#x215d;" horiz-adv-x="986" 
d="M153 621l-10 -92q20 5 47 5q72 0 114.5 -40t42.5 -107q0 -61 -41.5 -106t-113.5 -45q-70 0 -108.5 35.5t-42.5 90.5h74q2 -28 22.5 -45.5t56.5 -17.5q33 0 54 23t21 61q0 90 -99 90q-47 0 -101 -14l22 225h223v-63h-161zM681 682h77l-453 -682h-77zM713 325q0 -32 21 -51
t53 -19q33 0 54 19.5t21 50.5t-21 49t-54 18t-53.5 -17.5t-20.5 -49.5zM703 124q0 -38 23 -60t62 -22q38 0 61.5 22t23.5 60q0 37 -23.5 59.5t-61.5 22.5q-37 0 -61 -22t-24 -60zM942 120q0 -58 -40.5 -96t-113.5 -38q-74 0 -115 37t-41 95q0 85 80 115v1q-67 26 -67 96
q0 51 39.5 84t103.5 33q63 0 102 -32t39 -81q0 -35 -18 -61t-50 -37v-2q81 -28 81 -114z" />
    <glyph glyph-name="seveneighths" unicode="&#x215e;" horiz-adv-x="926" 
d="M347 684v-56l-184 -378h-81l187 371h-211v63h289zM621 682h77l-453 -682h-77zM653 325q0 -32 21 -51t53 -19q33 0 54 19.5t21 50.5t-21 49t-54 18t-53.5 -17.5t-20.5 -49.5zM643 124q0 -38 23 -60t62 -22q38 0 61.5 22t23.5 60q0 37 -23.5 59.5t-61.5 22.5q-37 0 -61 -22
t-24 -60zM882 120q0 -58 -40.5 -96t-113.5 -38q-74 0 -115 37t-41 95q0 85 80 115v1q-67 26 -67 96q0 51 39.5 84t103.5 33q63 0 102 -32t39 -81q0 -35 -18 -61t-50 -37v-2q81 -28 81 -114z" />
    <glyph glyph-name="partialdiff" unicode="&#x2202;" horiz-adv-x="615" 
d="M559 472q0 -94 -25 -188q-16 -58 -41 -109t-60.5 -94t-83.5 -67.5t-102 -24.5q-84 0 -136.5 53.5t-52.5 140.5q0 140 82.5 224.5t185.5 84.5q52 0 89 -22t53 -53h2q5 25 5 65q0 81 -38 126t-108 45q-53 0 -102 -28l-21 60q57 36 137 36q99 0 157.5 -66t58.5 -183z
M458 341q-11 38 -42 63t-79 25q-77 0 -134.5 -72.5t-57.5 -177.5q0 -55 28 -88.5t76 -33.5q72 0 128 78t81 206z" />
    <glyph glyph-name="Delta" unicode="&#x2206;" horiz-adv-x="636" 
d="M7 0l278 682h74l270 -682h-622zM268 449l-144 -375h386l-142 376q-27 71 -47 138h-4q-18 -59 -49 -139z" />
    <glyph glyph-name="product" unicode="&#x220f;" horiz-adv-x="767" 
d="M674 -235h-83v841h-415v-841h-83v917h581v-917z" />
    <glyph glyph-name="summation" unicode="&#x2211;" horiz-adv-x="672" 
d="M630 -235h-604v42l342 422l-319 406v47h555v-72h-438l299 -379l-318 -394h483v-72z" />
    <glyph glyph-name="minus" unicode="&#x2212;" horiz-adv-x="672" 
d="M593 227h-515v74h515v-74z" />
    <glyph glyph-name="uni2215" unicode="&#x2215;" horiz-adv-x="190" 
d="M283 682h77l-453 -682h-77z" />
    <glyph glyph-name="uni2219" unicode="&#x2219;" horiz-adv-x="229" 
d="M65 300v110h110v-110h-110z" />
    <glyph glyph-name="radical" unicode="&#x221a;" horiz-adv-x="565" 
d="M558 720q-34 -122 -103.5 -366t-104.5 -366h-68q-24 56 -72.5 166.5t-72.5 166.5q-10 -5 -28.5 -17t-28.5 -17q-4 8 -13 23.5t-14 23.5q20 13 60.5 38t60.5 38q47 -108 141 -322q30 105 90 316t90 316h63z" />
    <glyph glyph-name="infinity" unicode="&#x221e;" horiz-adv-x="838" 
d="M782 291q0 -72 -47.5 -121t-124.5 -49q-58 0 -108.5 31.5t-83.5 82.5h-3q-79 -114 -189 -114q-77 0 -125 46.5t-48 119.5q0 76 47.5 123.5t123.5 47.5q116 0 191 -116h3q80 116 189 116q76 0 125.5 -46.5t49.5 -120.5zM709 290q0 45 -27 74.5t-79 29.5q-82 0 -151 -105
q63 -106 152 -106q52 0 78.5 30.5t26.5 76.5zM382 289q-29 48 -70.5 76.5t-83.5 28.5q-50 0 -76.5 -30.5t-26.5 -76.5q0 -45 29 -74.5t74 -29.5q86 0 154 106z" />
    <glyph glyph-name="integral" unicode="&#x222b;" horiz-adv-x="522" 
d="M450 727l-19 -64q-20 10 -48 10q-85 0 -85 -99v-629q0 -83 -42 -129t-118 -46q-39 0 -75 14l18 64q27 -9 49 -9q42 0 63.5 25.5t21.5 72.5v632q0 81 41 126.5t119 45.5q49 0 75 -14z" />
    <glyph glyph-name="approxequal" unicode="&#x2248;" horiz-adv-x="672" 
d="M617 391q-73 -91 -166 -91q-63 0 -125 34q-66 37 -108 37q-53 0 -110 -72l-53 60q36 44 72 67.5t89 23.5q62 0 126 -35t109 -35q59 0 111 70zM617 169q-74 -90 -166 -90q-63 0 -125 34q-62 35 -108 35q-55 0 -110 -70l-53 59q35 44 71.5 67.5t89.5 23.5q64 0 126 -34
q63 -36 109 -36q56 0 111 71z" />
    <glyph glyph-name="notequal" unicode="&#x2260;" horiz-adv-x="672" 
d="M447 552h84l-79 -139h143v-73h-178l-80 -149h258v-74h-297l-74 -131h-84l74 131h-138v74h177l80 149h-257v73h292z" />
    <glyph glyph-name="lessequal" unicode="&#x2264;" horiz-adv-x="672" 
d="M593 0h-515v74h515v-74zM593 136l-515 205v63l515 206v-82l-394 -154v-2l394 -153v-83z" />
    <glyph glyph-name="greaterequal" unicode="&#x2265;" horiz-adv-x="672" 
d="M594 0h-515v74h515v-74zM594 341l-515 -205v83l394 153v2l-394 154v82l515 -206v-63z" />
    <glyph glyph-name="lozenge" unicode="&#x25ca;" horiz-adv-x="603" 
d="M317 682l219 -341l-219 -341h-44l-218 340l218 342h44zM295 80l169 261l-169 261l-168 -261z" />
    <glyph glyph-name="uniF8FF" unicode="&#xf8ff;" horiz-adv-x="500" 
d="M12 0v665h475v-665h-475zM88 618l162 -243l161 243h-323zM60 575v-484l40 61l80 120l41 61zM440 575l-162 -242l162 -243v485zM411 48l-161 242l-162 -242h323z" />
    <glyph glyph-name="grave.cap" horiz-adv-x="328" 
d="M38 819l38 71l173 -100l-29 -54z" />
    <glyph glyph-name="acute.cap" horiz-adv-x="328" 
d="M252 890l38 -71l-182 -83l-29 54z" />
    <glyph glyph-name="circumflex.cap" horiz-adv-x="328" 
d="M164 885l140 -98l-27 -49l-113 58l-113 -58l-27 49z" />
    <glyph glyph-name="caron.cap" horiz-adv-x="328" 
d="M164 738l-140 98l27 49l113 -58l113 58l27 -49z" />
    <glyph glyph-name="caron.alt" horiz-adv-x="211" 
d="M61 637v83h92v-46q0 -68 -29 -116h-49q22 32 24 79h-38z" />
    <glyph glyph-name="tilde.cap" horiz-adv-x="328" 
d="M64 773h-60q6 116 93 116q37 0 76 -33q37 -30 60 -30q30 0 31 55h60q-5 -116 -95 -116q-43 0 -81 32q-38 31 -53 31q-28 0 -31 -55z" />
    <glyph glyph-name="dieresis.cap" horiz-adv-x="328" 
d="M31 776v88h92v-88h-92zM205 776v88h92v-88h-92z" />
    <glyph glyph-name="macron.cap" horiz-adv-x="328" 
d="M298 784h-268v65h268v-65z" />
    <glyph glyph-name="breve.cap" horiz-adv-x="328" 
d="M254 879h66q-3 -58 -45.5 -95t-110.5 -37q-73 0 -113.5 37.5t-42.5 94.5h66q2 -30 25.5 -47.5t64.5 -17.5q42 0 65 18.5t25 46.5z" />
    <glyph glyph-name="ring.cap" horiz-adv-x="328" 
d="M97 838q0 -28 20 -48t48 -20t47 20t19 48t-19 47t-47 19t-48 -19t-20 -47zM42 838q0 50 35.5 85.5t87.5 35.5q50 0 85.5 -35.5t35.5 -85.5q0 -51 -35.5 -87t-85.5 -36q-52 0 -87.5 36t-35.5 87z" />
    <glyph glyph-name="hungarumlaut.cap" horiz-adv-x="328" 
d="M195 894l46 -66l-160 -101l-35 50zM382 894l46 -66l-160 -101l-35 50z" />
    <glyph glyph-name="dotaccent.cap" horiz-adv-x="328" 
d="M117 776v89h94v-89h-94z" />
    <glyph glyph-name="commaaccent.alt" horiz-adv-x="328" 
d="M220 634v-83h-92v46q0 68 29 116h49q-22 -32 -24 -79h38z" />
    <glyph glyph-name="zero.denominator" 
d="M30 222q0 115 50.5 170t122.5 55q68 0 117 -53.5t49 -172.5q0 -68 -16.5 -117t-44 -73.5t-54.5 -35t-55 -10.5q-70 0 -119.5 55.5t-49.5 181.5zM293 219q0 166 -94 166q-40 0 -66.5 -38.5t-26.5 -122.5q0 -176 94 -176q40 0 66.5 41t26.5 130z" />
    <glyph glyph-name="one.denominator" 
d="M170 0v372h-67v62h140v-434h-73z" />
    <glyph glyph-name="two.denominator" 
d="M59 0v52l143 152q24 27 35.5 40.5t22 35t10.5 41.5q0 29 -18.5 46.5t-50.5 17.5q-66 0 -71 -74h-73q3 60 41 98t106 38q65 0 104 -35t39 -88q0 -40 -21.5 -74t-73.5 -88l-93 -98h194v-64h-294z" />
    <glyph glyph-name="three.denominator" 
d="M125 325h-72q3 53 41 87.5t103 34.5q66 0 103.5 -31t37.5 -81q0 -36 -22 -61.5t-56 -34.5v-2q42 -9 67.5 -39t25.5 -75q0 -57 -41 -97t-116 -40q-71 0 -110.5 35.5t-45.5 97.5h73q11 -73 84 -73q38 0 60 23t22 59q0 33 -24 55t-71 22h-29v57h25q38 0 60.5 17.5t22.5 46.5
q0 28 -17.5 45t-50.5 17t-50 -18.5t-20 -44.5z" />
    <glyph glyph-name="four.denominator" 
d="M368 85h-65v-85h-73v85h-203v56l209 293h67v-290h65v-59zM198 281l-98 -137h130v139q0 11 0.5 19t1.5 16t1 14h-3q-10 -21 -32 -51z" />
    <glyph glyph-name="five.denominator" 
d="M153 371l-10 -92q20 5 47 5q72 0 114.5 -40t42.5 -107q0 -61 -41.5 -106t-113.5 -45q-70 0 -108.5 35.5t-42.5 90.5h74q2 -28 22.5 -45.5t56.5 -17.5q33 0 54 23t21 61q0 90 -99 90q-47 0 -101 -14l22 225h223v-63h-161z" />
    <glyph glyph-name="six.denominator" 
d="M30 143q0 74 59 146l123 145h78l-116 -139q14 6 44 6q66 -1 108 -46t42 -112q0 -66 -47.5 -111.5t-122.5 -45.5t-121.5 44.5t-46.5 112.5zM103 143q0 -42 27.5 -69t68.5 -27q42 0 69 27t27 69t-27 70.5t-69 28.5q-43 0 -69.5 -27.5t-26.5 -71.5z" />
    <glyph glyph-name="seven.denominator" 
d="M347 434v-56l-184 -378h-81l187 371h-211v63h289z" />
    <glyph glyph-name="eight.denominator" 
d="M125 325q0 -32 21 -51t53 -19q33 0 54 19.5t21 50.5t-21 49t-54 18t-53.5 -17.5t-20.5 -49.5zM115 124q0 -38 23 -60t62 -22q38 0 61.5 22t23.5 60q0 37 -23.5 59.5t-61.5 22.5q-37 0 -61 -22t-24 -60zM354 120q0 -58 -40.5 -96t-113.5 -38q-74 0 -115 37t-41 95
q0 85 80 115v1q-67 26 -67 96q0 51 39.5 84t103.5 33q63 0 102 -32t39 -81q0 -35 -18 -61t-50 -37v-2q81 -28 81 -114z" />
    <glyph glyph-name="nine.denominator" 
d="M369 290q0 -70 -60 -145l-123 -145h-78l116 139q-17 -7 -43 -7q-67 1 -109 46t-42 112q0 66 48 111.5t122 45.5q75 0 122 -43.5t47 -113.5zM296 291q0 43 -27.5 69.5t-68.5 26.5q-42 0 -69 -26.5t-27 -69.5t27 -71t69 -28q43 0 69.5 27t26.5 72z" />
    <glyph glyph-name="zero.numerator" 
d="M30 472q0 115 50.5 170t122.5 55q68 0 117 -53.5t49 -172.5q0 -68 -16.5 -117t-44 -73.5t-54.5 -35t-55 -10.5q-70 0 -119.5 55.5t-49.5 181.5zM293 469q0 166 -94 166q-40 0 -66.5 -38.5t-26.5 -122.5q0 -176 94 -176q40 0 66.5 41t26.5 130z" />
    <glyph glyph-name="one.numerator" 
d="M170 250v372h-67v62h140v-434h-73z" />
    <glyph glyph-name="two.numerator" 
d="M59 250v52l143 152q24 27 35.5 40.5t22 35t10.5 41.5q0 29 -18.5 46.5t-50.5 17.5q-66 0 -71 -74h-73q3 60 41 98t106 38q65 0 104 -35t39 -88q0 -40 -21.5 -74t-73.5 -88l-93 -98h194v-64h-294z" />
    <glyph glyph-name="three.numerator" 
d="M125 575h-72q3 53 41 87.5t103 34.5q66 0 103.5 -31t37.5 -81q0 -36 -22 -61.5t-56 -34.5v-2q42 -9 67.5 -39t25.5 -75q0 -57 -41 -97t-116 -40q-71 0 -110.5 35.5t-45.5 97.5h73q11 -73 84 -73q38 0 60 23t22 59q0 33 -24 55t-71 22h-29v57h25q38 0 60.5 17.5t22.5 46.5
q0 28 -17.5 45t-50.5 17t-50 -18.5t-20 -44.5z" />
    <glyph glyph-name="four.numerator" 
d="M368 335h-65v-85h-73v85h-203v56l209 293h67v-290h65v-59zM198 532l-99 -138h131v140q0 11 0.5 19t1.5 16t1 14h-3q-10 -21 -32 -51z" />
    <glyph glyph-name="five.numerator" 
d="M153 621l-10 -92q20 5 47 5q72 0 114.5 -40t42.5 -107q0 -61 -41.5 -106t-113.5 -45q-70 0 -108.5 35.5t-42.5 90.5h74q2 -28 22.5 -45.5t56.5 -17.5q33 0 54 23t21 61q0 90 -99 90q-47 0 -101 -14l22 225h223v-63h-161z" />
    <glyph glyph-name="six.numerator" 
d="M30 393q0 74 59 146l123 145h78l-116 -139q14 6 44 6q66 -1 108 -46t42 -112q0 -66 -47.5 -111.5t-122.5 -45.5t-121.5 44.5t-46.5 112.5zM103 393q0 -42 27.5 -69t68.5 -27q42 0 69 27t27 69t-27 70.5t-69 28.5q-43 0 -69.5 -27.5t-26.5 -71.5z" />
    <glyph glyph-name="seven.numerator" 
d="M347 684v-56l-184 -378h-81l187 371h-211v63h289z" />
    <glyph glyph-name="eight.numerator" 
d="M125 575q0 -32 21 -51t53 -19q33 0 54 19.5t21 50.5t-21 49t-54 18t-53.5 -17.5t-20.5 -49.5zM115 374q0 -38 23 -60t62 -22q38 0 61.5 22t23.5 60q0 37 -23.5 59.5t-61.5 22.5q-37 0 -61 -22t-24 -60zM354 370q0 -58 -40.5 -96t-113.5 -38q-74 0 -115 37t-41 95
q0 85 80 115v1q-67 26 -67 96q0 51 39.5 84t103.5 33q63 0 102 -32t39 -81q0 -35 -18 -61t-50 -37v-2q81 -28 81 -114z" />
    <glyph glyph-name="nine.numerator" 
d="M369 540q0 -70 -60 -145l-123 -145h-78l116 139q-17 -7 -43 -7q-67 1 -109 46t-42 112q0 66 48 111.5t122 45.5q75 0 122 -43.5t47 -113.5zM296 541q0 43 -27.5 69.5t-68.5 26.5q-42 0 -69 -26.5t-27 -69.5t27 -71t69 -28q43 0 69.5 27t26.5 72z" />
    <glyph glyph-name="dollar.oldstyle" horiz-adv-x="519" 
d="M227 622h67v-62q63 -8 102 -45t43 -90h-79q-9 55 -66 70v-167q81 -29 120.5 -70t39.5 -103q0 -59 -42.5 -101.5t-117.5 -51.5v-70h-67v69q-75 7 -117.5 47t-46.5 104h79q8 -75 85 -88v209q-80 29 -114 64t-34 88t40.5 90.5t107.5 44.5v62zM374 150q0 35 -19 57.5
t-61 40.5v-185q38 7 59 31t21 56zM159 427q0 -26 13.5 -42t54.5 -33v145q-68 -11 -68 -70z" />
    <glyph glyph-name="zero.oldstyle" horiz-adv-x="628" 
d="M29 256q0 119 82.5 198.5t202.5 79.5q122 0 203.5 -80t81.5 -198t-82 -199t-203 -81q-120 0 -202.5 80.5t-82.5 199.5zM114 255q0 -88 59 -146.5t141 -58.5q87 0 143.5 58t56.5 147q0 87 -55.5 146t-144.5 59t-144.5 -57.5t-55.5 -147.5z" />
    <glyph glyph-name="one.oldstyle" horiz-adv-x="368" 
d="M166 0v436h-129v76h211v-512h-82z" />
    <glyph glyph-name="two.oldstyle" horiz-adv-x="522" 
d="M53 0v64l180 125q78 54 105 88.5t27 80.5q0 45 -27.5 73.5t-76.5 28.5q-50 0 -80.5 -27t-33.5 -77h-84q6 82 58 130t141 48q87 0 138 -48.5t51 -118.5q0 -64 -32 -113t-119 -108l-102 -70h289v-76h-434z" />
    <glyph glyph-name="three.oldstyle" horiz-adv-x="548" 
d="M158 360h-85q4 76 56.5 124.5t131.5 48.5q84 0 136.5 -48.5t52.5 -121.5q0 -46 -25 -82t-66 -52v-3q66 -20 102 -73.5t36 -126.5q0 -95 -67.5 -159t-168.5 -64q-96 0 -160 57.5t-73 147.5h85q7 -58 49.5 -94.5t98.5 -36.5q64 0 107 42t43 109q0 69 -43.5 110.5
t-117.5 41.5h-41v74h44q50 0 80.5 28.5t30.5 74.5q0 43 -28.5 72.5t-74.5 29.5q-44 0 -72 -28t-31 -71z" />
    <glyph glyph-name="four.oldstyle" horiz-adv-x="591" 
d="M554 30h-97v-204h-82v204h-343v68l353 414h72v-406h97v-76zM322 335l-197 -229h250v229q0 19 2 73h-3q-20 -35 -52 -73z" />
    <glyph glyph-name="five.oldstyle" horiz-adv-x="564" 
d="M263 191q-79 0 -171 -26l37 347h349v-76h-275l-21 -181q51 12 99 12q114 0 178.5 -63t64.5 -169q0 -94 -63.5 -163t-167.5 -69q-106 0 -165.5 61t-67.5 152h86q6 -61 43 -99t104 -38q61 0 103 42.5t42 113.5q0 73 -45.5 114.5t-129.5 41.5z" />
    <glyph glyph-name="six.oldstyle" horiz-adv-x="571" 
d="M37 223q0 94 72 193l193 266h92l-168 -227q27 12 77 12q99 0 165 -71t66 -173t-72 -173.5t-177 -71.5q-106 0 -177 69.5t-71 175.5zM123 222q0 -73 46 -121.5t116 -48.5t116.5 48.5t46.5 121.5t-45 122.5t-118 49.5q-72 0 -117 -48t-45 -124z" />
    <glyph glyph-name="seven.oldstyle" horiz-adv-x="543" 
d="M489 512v-67l-312 -619h-90l314 610h-348v76h436z" />
    <glyph glyph-name="eight.oldstyle" horiz-adv-x="575" 
d="M98 529q0 76 53.5 125.5t135.5 49.5q84 0 137 -49.5t53 -125.5q0 -47 -23.5 -85t-63.5 -57v-2q60 -21 96 -72.5t36 -117.5q0 -95 -65.5 -157t-169.5 -62q-103 0 -168.5 61.5t-65.5 157.5q0 66 36 117t94 73v2q-39 19 -62 56.5t-23 85.5zM139 199q0 -66 44 -107.5
t104 -41.5q64 0 106 41.5t42 107.5q0 63 -41.5 105.5t-106.5 42.5t-106.5 -42t-41.5 -106zM182 525q0 -45 30 -74.5t75 -29.5q46 0 76 29.5t30 74.5t-30 75t-76 30t-75.5 -29.5t-29.5 -75.5z" />
    <glyph glyph-name="nine.oldstyle" horiz-adv-x="571" 
d="M534 289q0 -108 -107 -243l-173 -220h-92l183 231q-27 -12 -77 -12q-99 0 -165 71t-66 173t72 173.5t177 71.5q106 0 177 -69.5t71 -175.5zM448 290q0 73 -46 121.5t-116 48.5t-116.5 -48.5t-46.5 -121.5t45 -122.5t118 -49.5q72 0 117 48t45 124z" />
    <glyph glyph-name="cent.oldstyle" horiz-adv-x="529" 
d="M307 -83h-64v109q-87 10 -142 72t-55 159q0 90 53 154t144 74v92h64v-92q71 -9 116.5 -53.5t60.5 -102.5h-82q-25 70 -95 85v-317q77 15 101 94h81q-18 -63 -65 -109.5t-117 -55.5v-109zM128 256q0 -63 30.5 -106t84.5 -53v317q-53 -10 -84 -51t-31 -107z" />
    <glyph glyph-name="zero.fitted" horiz-adv-x="568" 
d="M39 345q0 94 21.5 166t58 112.5t78.5 60.5t89 20q46 0 86.5 -18t77 -57t58 -111t21.5 -169q0 -87 -16.5 -154.5t-41.5 -107t-59 -65.5t-64.5 -35t-62.5 -9q-46 0 -87 18t-78 57.5t-59 114.5t-22 177zM444 345q0 142 -41.5 213.5t-118.5 71.5q-70 0 -114.5 -68.5
t-44.5 -213.5q0 -296 162 -296q68 0 112.5 71t44.5 222z" />
    <glyph glyph-name="one.fitted" horiz-adv-x="377" 
d="M158 0v606h-101v76h183v-682h-82z" />
    <glyph glyph-name="two.fitted" horiz-adv-x="547" 
d="M80 0v76l219 243q51 57 76.5 102.5t25.5 94.5t-30.5 81.5t-84.5 32.5q-49 0 -82 -32.5t-33 -87.5h-87q3 85 61 139.5t143 54.5q95 0 147 -52.5t52 -127.5q0 -66 -32 -122.5t-97 -128.5l-179 -197h320v-76h-419z" />
    <glyph glyph-name="three.fitted" horiz-adv-x="552" 
d="M157 533h-85q7 68 58.5 119.5t143.5 51.5q87 0 140.5 -49.5t53.5 -124.5q0 -59 -36.5 -99.5t-90.5 -55.5v-2q66 -10 109 -57.5t43 -125.5q0 -89 -57.5 -150t-162.5 -61q-98 0 -155 53t-65 134h88q9 -51 44.5 -82t92.5 -31t93.5 39t36.5 96q0 60 -38.5 100t-118.5 41h-38
v76h33q61 0 98.5 32t37.5 89q0 42 -27.5 73t-81.5 31q-55 0 -83.5 -28.5t-32.5 -68.5z" />
    <glyph glyph-name="four.fitted" horiz-adv-x="556" 
d="M519 164h-87v-164h-82v164h-314v71l318 447h78v-442h87v-76zM301 491l-177 -251h226v247q0 48 1 76h-3q-13 -24 -47 -72z" />
    <glyph glyph-name="five.fitted" horiz-adv-x="561" 
d="M190 606l-19 -178q40 11 90 11q109 0 175.5 -59t66.5 -164q0 -42 -15 -83.5t-43 -76.5t-74 -56.5t-102 -21.5q-99 0 -160 54t-69 134h88q8 -49 44.5 -81t99.5 -32q61 0 103 42t42 109q0 78 -43 118.5t-126 40.5q-73 0 -165 -27l33 346h340v-76h-266z" />
    <glyph glyph-name="six.fitted" horiz-adv-x="586" 
d="M44 223q0 94 72 193l193 266h92l-168 -227q27 12 77 12q99 0 165 -71t66 -173t-72 -173.5t-177 -71.5q-106 0 -177 69.5t-71 175.5zM130 222q0 -73 46 -121.5t116 -48.5t116.5 48.5t46.5 121.5t-45 122.5t-118 49.5q-72 0 -117 -48t-45 -124z" />
    <glyph glyph-name="seven.fitted" horiz-adv-x="475" 
d="M452 682v-70l-296 -612h-90l299 606h-332v76h419z" />
    <glyph glyph-name="eight.fitted" horiz-adv-x="568" 
d="M166 517q0 -51 35 -84.5t82 -33.5q53 0 86 32.5t33 85.5q0 50 -33 81.5t-85 31.5q-49 0 -83.5 -31.5t-34.5 -81.5zM145 188q0 -59 39 -97t101 -38t100 35t38 100q0 61 -38.5 99t-98.5 38q-62 0 -101.5 -38.5t-39.5 -98.5zM508 187q0 -89 -57.5 -148.5t-165.5 -59.5
t-166.5 59t-58.5 144q0 133 125 182v2q-104 43 -104 156q0 76 57 129t147 53q89 0 145.5 -53t56.5 -129q0 -57 -28 -98.5t-73 -57.5v-2q122 -44 122 -177z" />
    <glyph glyph-name="nine.fitted" horiz-adv-x="586" 
d="M541 459q0 -94 -72 -193l-193 -266h-92l168 227q-27 -12 -77 -12q-99 0 -165 71t-66 173t72 173.5t177 71.5q106 0 177 -69.5t71 -175.5zM455 460q0 73 -46 121.5t-116 48.5t-116.5 -48.5t-46.5 -121.5t45 -122.5t118 -49.5q72 0 117 48t45 124z" />
    <glyph glyph-name="percent.oldstyle" horiz-adv-x="805" 
d="M566 566h77l-407 -566h-77zM40 424q0 71 47 116.5t115 45.5q67 0 113.5 -45.5t46.5 -116.5q0 -72 -46.5 -117.5t-113.5 -45.5q-68 0 -115 45.5t-47 117.5zM114 424q0 -43 25 -70.5t62 -27.5q36 0 61 27.5t25 70.5t-25 70t-61 27q-37 0 -62 -27t-25 -70zM443 142
q0 72 46.5 117.5t114.5 45.5t114.5 -45.5t46.5 -117.5q0 -71 -46.5 -116.5t-114.5 -45.5t-114.5 45.5t-46.5 116.5zM518 143q0 -44 24.5 -71t61.5 -27t62 27t25 71q0 43 -25 70t-62 27t-61.5 -27t-24.5 -70z" />
    <glyph glyph-name="perthousand.oldstyle" horiz-adv-x="1185" 
d="M566 566h77l-407 -566h-77zM40 424q0 71 47 116.5t115 45.5q67 0 113.5 -45.5t46.5 -116.5q0 -72 -46.5 -117.5t-113.5 -45.5q-68 0 -115 45.5t-47 117.5zM114 424q0 -43 25 -70.5t62 -27.5q36 0 61 27.5t25 70.5t-25 70t-61 27q-37 0 -62 -27t-25 -70zM443 142
q0 72 46.5 117.5t114.5 45.5t114.5 -45.5t46.5 -117.5q0 -71 -46.5 -116.5t-114.5 -45.5t-114.5 45.5t-46.5 116.5zM518 143q0 -44 24.5 -71t61.5 -27t62 27t25 71q0 43 -25 70t-62 27t-61.5 -27t-24.5 -70zM823 142q0 72 46.5 117.5t114.5 45.5t114.5 -45.5t46.5 -117.5
q0 -71 -46.5 -116.5t-114.5 -45.5t-114.5 45.5t-46.5 116.5zM898 143q0 -44 24.5 -71t61.5 -27t62 27t25 71q0 43 -25 70t-62 27t-61.5 -27t-24.5 -70z" />
    <glyph glyph-name="zero.taboldstyle" horiz-adv-x="562" 
d="M30 256q0 124 71 201t180 77q111 0 181 -76.5t70 -201.5q0 -123 -70.5 -201.5t-180.5 -78.5q-109 0 -180 77.5t-71 202.5zM115 255q0 -92 48 -148.5t118 -56.5q75 0 120.5 56.5t45.5 148.5q0 90 -45 147.5t-121 57.5q-75 0 -120.5 -56t-45.5 -149z" />
    <glyph glyph-name="one.taboldstyle" horiz-adv-x="562" 
d="M264 0v436h-129v76h211v-512h-82z" />
    <glyph glyph-name="two.taboldstyle" horiz-adv-x="562" 
d="M68 0v64l180 125q78 54 105 88.5t27 80.5q0 45 -27.5 73.5t-76.5 28.5q-50 0 -80.5 -27t-33.5 -77h-84q6 82 58 130t141 48q87 0 138 -48.5t51 -118.5q0 -64 -32 -113t-119 -108l-102 -70h289v-76h-434z" />
    <glyph glyph-name="three.taboldstyle" horiz-adv-x="562" 
d="M170 360h-85q4 76 56.5 124.5t131.5 48.5q84 0 136.5 -48.5t52.5 -121.5q0 -46 -25 -82t-66 -52v-3q66 -20 102 -73.5t36 -126.5q0 -95 -67.5 -159t-168.5 -64q-96 0 -160 57.5t-73 147.5h85q7 -58 49.5 -94.5t98.5 -36.5q64 0 107 42t43 109q0 68 -44 110t-117 42h-41
v74h44q50 0 80.5 28.5t30.5 74.5q0 43 -28.5 72.5t-74.5 29.5q-44 0 -72 -28t-31 -71z" />
    <glyph glyph-name="four.taboldstyle" horiz-adv-x="562" 
d="M534 30h-97v-204h-82v204h-323v68l333 414h72v-406h97v-76zM302 335l-183 -229h236v229q0 19 2 73h-3q-20 -35 -52 -73z" />
    <glyph glyph-name="five.taboldstyle" horiz-adv-x="562" 
d="M263 191q-79 0 -171 -26l37 347h349v-76h-275l-21 -181q51 12 99 12q114 0 178.5 -63t64.5 -169q0 -94 -63.5 -163t-167.5 -69q-106 0 -165.5 61t-67.5 152h86q6 -61 43 -99t104 -38q61 0 103 42.5t42 113.5q0 73 -45.5 114.5t-129.5 41.5z" />
    <glyph glyph-name="six.taboldstyle" horiz-adv-x="562" 
d="M33 223q0 94 72 193l192 266h92l-167 -227q27 12 77 12q99 0 165 -71t66 -173t-72 -173.5t-177 -71.5q-106 0 -177 69.5t-71 175.5zM119 222q0 -73 46 -121.5t116 -48.5t116.5 48.5t46.5 121.5t-45 122.5t-118 49.5q-72 0 -117 -48t-45 -124z" />
    <glyph glyph-name="seven.taboldstyle" horiz-adv-x="562" 
d="M501 512v-69l-294 -617h-90l297 610h-339v76h426z" />
    <glyph glyph-name="eight.taboldstyle" horiz-adv-x="562" 
d="M91 529q0 76 53.5 125.5t135.5 49.5q84 0 137.5 -49.5t53.5 -125.5q0 -47 -23.5 -85t-63.5 -57v-2q60 -21 96 -72.5t36 -117.5q0 -95 -66 -157t-170 -62q-103 0 -168.5 61.5t-65.5 157.5q0 66 36 117t94 73v2q-39 19 -62 56.5t-23 85.5zM132 199q0 -66 44 -107.5
t104 -41.5q64 0 106.5 41.5t42.5 107.5q0 62 -42 105t-107 43t-106.5 -42t-41.5 -106zM175 525q0 -45 30 -74.5t75 -29.5q46 0 76.5 29.5t30.5 74.5t-30.5 75t-76.5 30t-75.5 -29.5t-29.5 -75.5z" />
    <glyph glyph-name="nine.taboldstyle" horiz-adv-x="562" 
d="M529 289q0 -108 -107 -243l-173 -220h-92l183 231q-27 -12 -77 -12q-99 0 -165 71t-66 173t72 173.5t177 71.5q106 0 177 -69.5t71 -175.5zM443 290q0 73 -46 121.5t-116 48.5t-116.5 -48.5t-46.5 -121.5t45 -122.5t118 -49.5q72 0 117 48t45 124z" />
    <glyph glyph-name="parenleft.cap" horiz-adv-x="320" 
d="M304 -161h-79q-78 97 -116 223.5t-38 254.5q0 129 38 255.5t116 224.5h79q-78 -98 -116 -224.5t-38 -255.5q0 -128 38 -254.5t116 -223.5z" />
    <glyph glyph-name="parenright.cap" horiz-adv-x="320" 
d="M95 -161h-79q78 98 116 224t38 255q0 128 -38 255t-116 224h79q78 -97 116 -224t38 -255q0 -129 -38 -255t-116 -224z" />
    <glyph glyph-name="bracketleft.cap" horiz-adv-x="353" 
d="M281 782v-70h-106v-788h106v-70h-182v928h182z" />
    <glyph glyph-name="bracketright.cap" horiz-adv-x="353" 
d="M72 712v70h182v-928h-182v70h106v788h-106z" />
    <glyph glyph-name="braceleft.cap" horiz-adv-x="380" 
d="M306 795v-58q-63 -3 -63 -83v-208q0 -94 -79 -129v-2q79 -32 79 -141v-195q0 -80 63 -83v-57q-67 1 -104.5 42t-37.5 116v209q0 35 -21.5 58t-61.5 27v51q40 4 61.5 27t21.5 57v210q0 75 37.5 116t104.5 43z" />
    <glyph glyph-name="braceright.cap" horiz-adv-x="380" 
d="M74 737v58q67 -2 104.5 -43t37.5 -116v-210q0 -34 21.5 -57t61.5 -27v-51q-40 -4 -61.5 -27t-21.5 -58v-209q0 -75 -37.5 -116t-104.5 -42v57q63 3 63 83v195q0 109 79 141v2q-79 35 -79 129v208q0 80 -63 83z" />
    <glyph glyph-name="exclamdown.cap" horiz-adv-x="229" 
d="M159 682v-88h-88v88h88zM159 0h-88l8 493h72z" />
    <glyph glyph-name="questiondown.cap" horiz-adv-x="435" 
d="M122 360q32 32 45 61.5t13 71.5h73q0 -58 -11 -94t-45 -75q-8 -10 -30 -34t-28.5 -32t-18 -25.5t-15 -32.5t-3.5 -34q0 -49 31 -81.5t85 -32.5q48 0 81 32.5t33 87.5h87q-2 -85 -60 -139.5t-144 -54.5q-95 0 -147 52.5t-52 127.5q0 45 19.5 87t37 62.5t49.5 52.5z
M261 682v-88h-88v88h88z" />
    <glyph glyph-name="guillemotleft.cap" horiz-adv-x="466" 
d="M232 328l125 203l54 -29l-90 -174l90 -174l-54 -30zM60 328l125 203l54 -29l-90 -174l90 -174l-54 -30z" />
    <glyph glyph-name="guillemotright.cap" horiz-adv-x="466" 
d="M234 327l-125 -203l-54 29l90 174l-90 174l54 30zM406 327l-125 -203l-54 29l90 174l-90 174l54 30z" />
    <glyph glyph-name="guilsinglleft.cap" horiz-adv-x="294" 
d="M60 328l125 203l54 -29l-90 -174l90 -174l-54 -30z" />
    <glyph glyph-name="guilsinglright.cap" horiz-adv-x="294" 
d="M234 327l-125 -203l-54 29l90 174l-90 174l54 30z" />
    <glyph glyph-name="hyphen.cap" horiz-adv-x="471" 
d="M400 324h-322v80h322v-80z" />
    <glyph glyph-name="endash.cap" horiz-adv-x="560" 
d="M482 324h-404v80h404v-80z" />
    <glyph glyph-name="emdash.cap" horiz-adv-x="1110" 
d="M1032 324h-954v80h954v-80z" />
    <glyph glyph-name="periodcentered.cap" horiz-adv-x="229" 
d="M65 300v110h110v-110h-110z" />
    <glyph glyph-name="at.cap" horiz-adv-x="949" 
d="M879 380q0 -116 -55 -191t-135 -75q-49 0 -78.5 23t-34.5 64h-5q-21 -38 -62 -62.5t-79 -24.5q-71 0 -114 52.5t-43 136.5q0 99 57 172t144 73q80 0 122 -74h1l11 63h67l-40 -259q-4 -26 -4 -47q0 -28 16 -44.5t48 -16.5q49 0 81.5 58.5t32.5 146.5q0 139 -84.5 218
t-241.5 79q-152 0 -248 -105t-96 -255q0 -146 91.5 -234.5t246.5 -88.5q127 0 202 36l22 -49q-88 -43 -232 -43q-178 0 -289 104t-111 276q0 176 117 295.5t301 119.5q103 0 181.5 -30.5t122.5 -81.5t66 -110.5t22 -125.5zM581 365q0 60 -26.5 93.5t-74.5 33.5
q-65 0 -101 -57.5t-36 -133.5q0 -59 26.5 -95t72.5 -36q61 0 100 60.5t39 134.5z" />
    <glyph glyph-name="sterling.oldstyle" horiz-adv-x="582" 
d="M366 266h-141q7 -33 7 -58q0 -74 -43 -108q45 0 105 -23q62 -24 102 -24q31 0 48.5 18.5t18.5 64.5h80q-5 -158 -145 -158q-58 0 -131 30q-69 29 -112 29q-54 0 -108 -41v75q109 47 109 131q0 26 -9 64h-96v70h76q-11 44 -11 75q0 72 49 123.5t142 51.5q84 0 134 -46.5
t56 -126.5h-80q-4 49 -33 75t-77 26q-108 0 -108 -108q0 -29 9 -70h158v-70z" />
    <glyph glyph-name="Euro.oldstyle" horiz-adv-x="511" 
d="M383 184h-191q19 -63 65 -98.5t116 -35.5q61 0 118 25v-72q-56 -27 -129 -27q-104 0 -170 56t-89 152h-83l18 64h56q-1 11 -1 33q0 15 2 45h-69l18 64h63q25 91 91 143.5t168 52.5q66 0 116 -22l-17 -69q-36 18 -96 18q-133 0 -175 -123h242l-16 -64h-239q-2 -14 -2 -44
q0 -23 1 -34h220z" />
    <glyph glyph-name="florin.oldstyle" horiz-adv-x="467" 
d="M45 -152q72 0 86 86l56 348h-84v66h94l13 85q13 82 51.5 117.5t102.5 35.5q31 0 59 -7v-65q-21 6 -47 6q-37 0 -58 -20.5t-28 -66.5l-14 -85h87v-66h-97l-56 -344q-13 -83 -50 -119.5t-103 -36.5q-31 0 -59 7v65q18 -6 47 -6z" />
    <glyph glyph-name="yen.oldstyle" horiz-adv-x="536" 
d="M63 240v64h132l-145 262h89l89 -172q28 -54 39 -84h2q19 47 37 83l91 173h89l-145 -262h132v-64h-164v-72h164v-64h-164v-104h-82v104h-164v64h164v72h-164z" />
    <glyph glyph-name="numbersign.oldstyle" horiz-adv-x="568" 
d="M525 368h-106l-34 -157h107l-12 -54h-106l-34 -157h-56l34 157h-126l-34 -157h-56l34 157h-106l12 54h105l35 157h-107l12 54h107l31 144h56l-31 -144h125l30 144h57l-31 -144h107zM238 368l-34 -157h125l34 157h-125z" />
    <glyph glyph-name="fi.alt01" horiz-adv-x="535" 
d="M310 413h-133v-413h-80v413h-69v66h69v34q0 101 50.5 156.5t143.5 55.5q76 0 124 -44.5t51 -107.5h-80q-3 31 -27 58.5t-73 27.5q-109 0 -109 -142v-38h133v-66zM387 0v479h79v-479h-79z" />
    <glyph glyph-name="fl.alt01" horiz-adv-x="535" 
d="M310 413h-133v-413h-80v413h-69v66h69v40q0 106 53.5 156t142.5 50q75 0 173 -25v-700h-79v647q-46 12 -90 12q-66 0 -93 -34t-27 -108v-38h133v-66z" />
    <glyph glyph-name="f_f.alt01" horiz-adv-x="589" 
d="M177 413v-413h-80v413h-69v66h69v40q0 105 51.5 155.5t136.5 50.5q80 0 141 -45q34 45 112 45q30 0 59 -8v-66q-24 8 -54 8q-38 0 -57 -22.5t-19 -62.5v-95h110v-66h-110v-413h-80v413h-210zM387 479v86q0 33 7 57q-46 37 -104 37q-62 0 -87.5 -34t-25.5 -108v-38h210z
" />
    <glyph glyph-name="f_f_i.alt01" horiz-adv-x="826" 
d="M387 413h-210v-413h-80v413h-69v66h69v40q0 105 52.5 155.5t137.5 50.5q87 0 151 -54q51 54 143 54q76 0 124 -44.5t52 -107.5h-80q-3 31 -27 58.5t-73 27.5q-110 0 -110 -139v-41h133v-66h-133v-413h-80v413zM678 0v479h79v-479h-79zM387 479v36q0 58 17 98
q-21 19 -54 32.5t-58 13.5q-62 0 -88.5 -34.5t-26.5 -107.5v-38h210z" />
    <glyph glyph-name="f_f_l.alt01" horiz-adv-x="826" 
d="M387 413h-210v-413h-80v413h-69v66h69v40q0 105 52.5 155.5t137.5 50.5q83 0 149 -53q50 53 142 53q87 0 179 -21v-704h-79v649q-40 10 -91 10q-65 0 -92.5 -34.5t-27.5 -107.5v-38h124v-66h-124v-413h-80v413zM387 479v44q0 53 15 90q-22 20 -54 33t-56 13
q-62 0 -88.5 -34.5t-26.5 -107.5v-38h210z" />
    </font>
</defs>
</svg>
